<svg width="83px" height="74px" viewBox="0 0 83 74" version="1.1" xmlns="http://www.w3.org/2000/svg" xmlns:xlink="http://www.w3.org/1999/xlink">
    <!-- Generator: Sketch 49.3 (51167) - http://www.bohemiancoding.com/sketch -->
    <desc>Created with Sketch.</desc>
    <defs>
        <polygon id="path-1" points="0 0 83 0 83 72 0 72"></polygon>
    </defs>
    <g id="Page-1" stroke="none" stroke-width="1" fill="none" fill-rule="evenodd">
        <g id="Group-4">
            <circle id="Oval-Copy-4" fill="#FFD93D" cx="42" cy="37" r="37"></circle>
            <g id="Page-1">
                <mask id="mask-2" fill="white">
                    <use xlink:href="#path-1"></use>
                </mask>
                <g id="Clip-2"></g>
                <path d="M75.8989695,27.6774929 L72.318608,27.6774929 L73.7114351,23.8594085 C73.9012575,23.3387241 73.6374163,22.7605432 73.1216723,22.5687545 C72.6059283,22.3753574 72.0340733,22.643138 71.8442509,23.1642244 L70.1983272,27.6774929 L66.3489511,27.6774929 L67.4409275,23.7858292 C67.5909549,23.2518763 67.2833391,22.6962116 66.7548607,22.5446301 C66.2275761,22.3934507 65.6760166,22.703851 65.5263872,23.2378038 L64.2808018,27.6774929 L60.6510944,27.6774929 L61.5361365,23.7339618 C61.6575115,23.1927716 61.3216412,22.654396 60.7856017,22.5313617 C60.2503581,22.4087294 59.7171043,22.7484811 59.5953315,23.2896712 L58.6104037,27.6774929 L54.6925801,27.6774929 L55.257272,23.652743 C55.3340765,23.1031094 54.9556254,22.5944871 54.411627,22.516485 C53.8640469,22.4404932 53.364221,22.8216583 53.2866206,23.3708899 L52.6825316,27.6774929 L48.740433,27.6774929 L48.9712443,23.5687098 C49.0022845,23.0142513 48.5824466,22.5398052 48.0340707,22.5084435 C47.4944497,22.4815046 47.0157151,22.9008667 46.984675,23.4549232 L46.7474964,27.6774929 L43.1786754,27.6774929 L43.1786754,23.5120175 C43.1786754,22.9567548 42.7333687,22.5068352 42.1837989,22.5068352 C41.6342292,22.5068352 41.1889224,22.9567548 41.1889224,23.5120175 L41.1889224,27.6774929 L37.4955429,27.6774929 L37.2587623,23.4549232 C37.2277222,22.9012688 36.7668954,22.4706487 36.2089687,22.5084435 C35.6605927,22.5398052 35.2411528,23.0142513 35.2721929,23.5687098 L35.5026063,27.6774929 L31.5609057,27.6774929 L30.9568167,23.3708899 C30.8800122,22.8216583 30.3833698,22.4408953 29.8322083,22.516485 C29.2882098,22.5944871 28.9097588,23.1031094 28.9865632,23.652743 L29.5512551,27.6774929 L25.6330336,27.6774929 L24.6485038,23.2896712 C24.5267309,22.7484811 23.9930791,22.4079253 23.4578356,22.5313617 C22.9221941,22.654396 22.5863238,23.1927716 22.7076987,23.7339618 L23.5927408,27.6774929 L19.9622375,27.6774929 L18.7166522,23.2378038 C18.5670227,22.703851 18.017453,22.3938528 17.4881787,22.5446301 C16.9597003,22.6962116 16.6524824,23.2518763 16.8025098,23.7858292 L17.8940883,27.6774929 L14.0451101,27.6774929 L12.3991864,23.1642244 C12.209364,22.643138 11.637111,22.3753574 11.121765,22.5687545 C10.606021,22.7605432 10.3421798,23.338322 10.5324002,23.8594085 L11.9248293,27.6774929 L8.41092552,27.6774929 L5.50031484,20.8772337 L78.8091822,20.8772337 L75.8989695,27.6774929 Z M71.3702917,69.9896355 L62.7431207,61.4130182 C62.5572778,61.2280647 62.3065689,61.124732 62.0455133,61.124732 L51.962241,61.124732 C51.7660514,61.124732 51.5746372,61.1830325 51.4110795,61.2927984 L49.4400301,62.6188349 L49.4400301,56.0718817 C49.4400301,55.516619 48.9947234,55.0666994 48.4451537,55.0666994 L45.9090145,55.0666994 C46.533001,54.6610079 47.0173069,54.1089618 47.2891072,53.448356 C47.7590868,52.3032523 48.0619272,50.4738206 46.8326578,48.2600071 C45.6905396,46.2038063 43.1356968,43.9288778 43.0274542,43.8331844 C42.6999409,43.5428878 42.223196,43.5022784 41.8515102,43.7322641 C41.4802223,43.9622498 41.2999507,44.409757 41.4073973,44.8367584 C41.6481574,45.7953002 41.9892011,47.5877412 41.8761831,48.3187098 C41.8383778,48.5635722 41.5741386,48.7903413 41.1455458,49.1393406 C40.4451528,49.7106862 39.4856939,50.492718 39.4856939,52.0451215 C39.4856939,53.2814957 40.0794362,54.3775465 40.991141,55.0666994 L38.2086704,55.0666994 C37.6591006,55.0666994 37.2137939,55.516619 37.2137939,56.0718817 L37.2137939,62.6172266 L35.255479,61.2940046 C35.0919213,61.1834346 34.8993132,61.124732 34.7023277,61.124732 L25.0472503,61.124732 C24.799725,61.124732 24.5609546,61.2176108 24.3778974,61.3860793 L15.0081505,69.9896355 L7.93975201,69.9896355 L8.6986438,33.4150733 L11.8476269,40.7730075 C12.0052153,41.1409042 12.3637688,41.3793335 12.7609235,41.3793335 L71.5489715,41.3793335 C71.9457283,41.3793335 72.3046797,41.1409042 72.4622682,40.7730075 L75.7994819,32.9760096 L76.4366008,32.9760096 L77.9718942,69.9896355 L71.3702917,69.9896355 Z M39.2035469,66.4437545 L47.4506751,66.4437545 L47.4506751,64.908238 L39.2035469,64.908238 L39.2035469,66.4437545 Z M39.203149,57.921015 L47.4502772,57.921015 L47.4502772,57.077064 L39.203149,57.077064 L39.203149,57.921015 Z M39.2035469,62.8978735 L47.4506751,62.8978735 L47.4506751,59.9313796 L39.2035469,59.9313796 L39.2035469,62.8978735 Z M43.8711095,47.5495443 C44.3414871,48.099178 44.7895795,48.6902252 45.0967973,49.2442816 C45.7605789,50.4388402 45.8831477,51.6261615 45.4513713,52.6775822 C45.1771833,53.3446212 44.2607031,53.8106237 43.22245,53.8106237 C42.2594096,53.8106237 41.4754469,53.01854 41.4754469,52.0451215 C41.4754469,51.4802091 41.7906237,51.1967477 42.3951107,50.7042084 C42.9697514,50.2353914 43.6848686,49.6523856 43.8420591,48.6275018 C43.8898132,48.3183077 43.8941906,47.944782 43.8711095,47.5495443 Z M13.1242524,30.9656451 L9.81807883,30.9656451 L9.27129471,29.6878574 L12.6578543,29.6878574 L13.1242524,30.9656451 Z M18.8169357,30.9656451 L15.2445332,30.9656451 L14.778533,29.6878574 L18.4583822,29.6878574 L18.8169357,30.9656451 Z M24.3305412,30.9656451 L20.885085,30.9656451 L20.5265315,29.6878574 L24.0436189,29.6878574 L24.3305412,30.9656451 Z M30.0124799,30.9656451 L26.370834,30.9656451 L26.0843095,29.6878574 L29.8330042,29.6878574 L30.0124799,30.9656451 Z M35.6872554,30.9656451 L32.0221304,30.9656451 L31.8430526,29.6878574 L35.6156243,29.6878574 L35.6872554,30.9656451 Z M41.1889224,30.9656451 L37.680192,30.9656451 L37.6085609,29.6878574 L41.1889224,29.6878574 L41.1889224,30.9656451 Z M46.5632453,30.9656451 L43.1786754,30.9656451 L43.1786754,29.6878574 L46.6348764,29.6878574 L46.5632453,30.9656451 Z M52.2213069,30.9656451 L48.5561819,30.9656451 L48.627813,29.6878574 L52.4007826,29.6878574 L52.2213069,30.9656451 Z M57.8726033,30.9656451 L54.2313554,30.9656451 L54.4104331,29.6878574 L58.1591278,29.6878574 L57.8726033,30.9656451 Z M63.3587503,30.9656451 L59.912896,30.9656451 L60.1998184,29.6878574 L63.7169058,29.6878574 L63.3587503,30.9656451 Z M68.9989041,30.9656451 L65.4268995,30.9656451 L65.7850551,29.6878574 L69.4649043,29.6878574 L68.9989041,30.9656451 Z M15.415254,37.2484364 C15.5636896,37.65453 15.9441303,37.9062277 16.3488461,37.9062277 C16.4630579,37.9062277 16.5792595,37.8865261 16.6926754,37.8439064 C17.2084194,37.6521176 17.4722606,37.0743388 17.2824382,36.5532523 L15.9775582,32.9760096 L19.3808317,32.9760096 L20.5587655,37.174857 C20.6829261,37.6175393 21.0820705,37.9062277 21.5158367,37.9062277 C21.6053756,37.9062277 21.6969042,37.8937634 21.787239,37.8680307 C22.3157174,37.7164492 22.6233332,37.1607845 22.4733058,36.6268317 L21.448981,32.9760096 L24.7818172,32.9760096 L25.7122257,37.1229896 C25.8172847,37.5893942 26.2271738,37.9062277 26.6820313,37.9062277 C26.7548563,37.9062277 26.8288751,37.8981862 26.9028939,37.8812991 C27.4385354,37.7582648 27.7744057,37.2198892 27.6530308,36.6786991 L26.8221099,32.9760096 L30.2942289,32.9760096 L30.8648901,37.0417709 C30.9349294,37.5435579 31.3611345,37.9058256 31.848624,37.9058256 C31.8951842,37.9058256 31.9421423,37.9030111 31.9894985,37.8961758 C32.5334969,37.8181737 32.9119479,37.3095515 32.8351435,36.7599178 L32.3042774,32.9760096 L35.7998754,32.9760096 L36.0235237,36.9577377 C36.05337,37.4924946 36.4919115,37.9058256 37.0160125,37.9058256 C37.0347161,37.9058256 37.0538178,37.9054235 37.0729194,37.9046194 C37.6212953,37.8728556 38.0411332,37.3984096 38.0100931,36.843951 L37.792812,32.9760096 L41.1889224,32.9760096 L41.1889224,36.9006433 C41.1889224,37.455906 41.6342292,37.9058256 42.1837989,37.9058256 C42.7333687,37.9058256 43.1786754,37.455906 43.1786754,36.9006433 L43.1786754,32.9760096 L46.4502273,32.9760096 L46.2333442,36.843951 C46.2023041,37.3984096 46.621744,37.8728556 47.1701199,37.9046194 C47.1892216,37.9054235 47.2083232,37.9058256 47.2274248,37.9058256 C47.7511278,37.9058256 48.1900673,37.4924946 48.2199136,36.9577377 L48.4435618,32.9760096 L51.9395579,32.9760096 L51.4086918,36.7599178 C51.3314893,37.3095515 51.7103383,37.8181737 52.2543368,37.8961758 C52.3016929,37.9030111 52.3486511,37.9058256 52.3948133,37.9058256 C52.8827008,37.9058256 53.3085079,37.5435579 53.3789452,37.0417709 L53.9492084,32.9760096 L57.4213273,32.9760096 L56.5900085,36.6786991 C56.4690316,37.2198892 56.8045039,37.7582648 57.3405434,37.8812991 C57.4145622,37.8981862 57.488581,37.9062277 57.561406,37.9062277 C58.0154676,37.9062277 58.4261526,37.5893942 58.5308136,37.1229896 L59.4616201,32.9760096 L62.7948543,32.9760096 L61.7705294,36.6268317 C61.6205021,37.1607845 61.9277199,37.7164492 62.4561983,37.8680307 C62.5469311,37.8937634 62.6380617,37.9062277 62.7279986,37.9062277 C63.1617647,37.9062277 63.5609092,37.6175393 63.6846718,37.174857 L64.8626056,32.9760096 L68.2658791,32.9760096 L66.9609991,36.5532523 C66.7707787,37.0739367 67.0346199,37.6521176 67.5503639,37.8439064 C67.6637798,37.8865261 67.7799814,37.9062277 67.8941932,37.9062277 C68.2993069,37.9062277 68.6797477,37.65453 68.8277853,37.2484364 L70.3861599,32.9760096 L73.631447,32.9760096 L70.8955367,39.3689689 L13.4143584,39.3689689 L10.678448,32.9760096 L13.8572774,32.9760096 L15.415254,37.2484364 Z M74.4918162,30.9656451 L71.1195828,30.9656451 L71.585583,29.6878574 L75.0386003,29.6878574 L74.4918162,30.9656451 Z M3.29964803,18.3654843 L7.72008328,18.3654843 L10.9422893,18.3654843 L81.010247,18.3654843 L81.010247,18.8668692 L80.3233843,18.8668692 L3.98651076,18.8668692 L3.29964803,18.8668692 L3.29964803,18.3654843 Z M2.03496103,2.67901179 C1.94104469,2.4755629 2.01307375,2.30910472 2.06440937,2.22788599 C2.11534705,2.14666726 2.23433428,2.01036455 2.45639071,2.01036455 C2.63626438,2.01036455 2.80220978,2.11691387 2.87821835,2.28136169 L9.37993522,16.3551197 L8.35322268,16.3551197 L2.03496103,2.67901179 Z M81.477441,16.3551197 L11.5762246,16.3551197 L4.68093456,1.43057541 C4.27900445,0.561695854 3.40590084,0 2.45639071,0 C1.6131334,0 0.839119483,0.429011794 0.385853751,1.14832023 C-0.0674119801,1.86722659 -0.124716866,2.75741601 0.23184687,3.529396 L6.15733128,16.3551197 L2.83205608,16.3551197 C1.99277827,16.3551197 1.30989504,17.0454789 1.30989504,17.8934507 L1.30989504,19.3389028 C1.30989504,20.1868746 1.99277827,20.8772337 2.83205608,20.8772337 L3.33267793,20.8772337 L6.80041944,28.9802091 L5.92970354,70.9739099 C5.92373428,71.2437009 6.02600758,71.5050482 6.21304436,71.6980432 C6.40047909,71.8914403 6.65675928,72 6.92418208,72 L15.3929688,72 C15.640494,72 15.8788664,71.9071212 16.0619237,71.7386526 L25.4316706,63.1350965 L34.4002832,63.1350965 L36.7740585,64.7385633 C36.9057802,64.8274214 37.0573993,64.8728556 37.2137939,64.8909489 L37.2137939,67.4489367 C37.2137939,68.0041994 37.6591006,68.454119 38.2086704,68.454119 L48.4451537,68.454119 C48.9947234,68.454119 49.4400301,68.0041994 49.4400301,67.4489367 L49.4400301,64.8909489 C49.5956288,64.8728556 49.7464521,64.8278234 49.8777758,64.7397695 L52.2630917,63.1350965 L61.6384098,63.1350965 L70.2655809,71.7117137 C70.4510258,71.8966673 70.7017347,72 70.9627903,72 L79.0093514,72 C79.2807537,72 79.5398195,71.8882237 79.7276522,71.6908059 C79.9154849,71.4929861 80.0149726,71.2268138 80.003432,70.9530021 L78.3873546,31.9861061 C78.3873546,31.9808792 78.3889464,31.9760543 78.3889464,31.9708274 C78.3889464,31.957961 78.3853649,31.9463009 78.3849669,31.9334346 L78.2484699,28.6408595 C78.2373272,28.373079 78.1231154,28.1338456 77.9456295,27.9605522 L80.9772171,20.8772337 L81.477441,20.8772337 C82.3171168,20.8772337 83,20.1868746 83,19.3389028 L83,17.8934507 C83,17.0454789 82.3171168,16.3551197 81.477441,16.3551197 Z" id="Fill-1" fill="#3E3D3D" mask="url(#mask-2)"></path>
            </g>
        </g>
    </g>
</svg>
