
<svg width="82px" height="82px" viewBox="0 0 82 82" version="1.1" xmlns="http://www.w3.org/2000/svg" xmlns:xlink="http://www.w3.org/1999/xlink">
    <!-- Generator: Sketch 49.3 (51167) - http://www.bohemiancoding.com/sketch -->
    <desc>Created with Sketch.</desc>
    <defs>
        <polygon id="path-1" points="0 0.341426167 20.7210288 0.341426167 20.7210288 42.8031406 0 42.8031406"></polygon>
        <polygon id="path-3" points="0.141575 0.227272727 6.94645 0.227272727 6.94645 4.89836364 0.141575 4.89836364"></polygon>
    </defs>
    <g id="Page-1" stroke="none" stroke-width="1" fill="none" fill-rule="evenodd">
        <g id="Group-3">
            <circle id="Oval-Copy-3" fill="#FFD93D" cx="42" cy="45" r="37"></circle>
            <g id="Group">
                <g id="Page-1">
                    <path d="M34,64 C33.4476,64 33,63.4949532 33,62.871656 L33,54.128344 C33,53.5054981 33.4476,53 34,53 C34.5524,53 35,53.5054981 35,54.128344 L35,62.871656 C35,63.4949532 34.5524,64 34,64" id="Fill-1" fill="#3E3D3D"></path>
                    <path d="M53.0159416,64 C52.4743195,64 52.033858,63.5152289 52.0318899,62.9154717 L52.0000066,54.09377 C51.9980385,53.4922705 52.436532,53.0027083 52.9801222,53.0005306 C53.529223,52.9813662 53.966142,53.483995 53.9681101,54.0850589 L53.9999934,62.9067606 C54.0019615,63.50826 53.563468,63.9978222 53.0198778,64 L53.0159416,64 Z" id="Fill-3" fill="#3E3D3D"></path>
                    <path d="M33.3487157,54.9185817 C23.4170446,50.8441445 17,41.2319408 17,30.4310296 C17,15.8567089 28.7726659,4 43.2432435,4 C54.2695483,4 64.1920428,11.0142989 67.9347726,21.4543289 C68.139716,22.0260176 67.5600572,21.2479225 66.9924208,21.4543289 C66.4256583,21.6607354 66.0850382,22.7733058 65.8796578,22.2020572 C62.4484945,12.6307828 53.3514543,6.20049533 43.2432435,6.20049533 C29.9774185,6.20049533 19.1848977,17.070062 19.1848977,30.4310296 C19.1848977,40.3332585 25.0679533,49.144922 34.1728591,52.8804829 C34.7317559,53.1097745 35.0000614,53.7518791 34.772395,54.3147658 C34.5997881,54.7416618 34.1912122,55 33.7603504,55 C33.6231388,55 33.4837424,54.9735941 33.3487157,54.9185817 Z" id="Fill-5" fill="#3E3D3D"></path>
                    <path d="M43.2955014,56 C41.8317296,56 40.3635113,55.8807243 38.9313093,55.6461634 C38.3257026,55.5468408 37.9152951,54.9761796 38.0148956,54.372263 C38.1144961,53.7683464 38.6858651,53.3595277 39.2923611,53.4584068 C40.6053983,53.6739013 41.9522284,53.7829787 43.2955014,53.7829787 C56.794039,53.7829787 67.7767742,42.8317804 67.7767742,29.3704706 C67.7767742,28.6517123 67.7443151,27.9236425 67.6816202,27.205771 C67.6278181,26.5960901 68.0800222,26.0582408 68.6914093,26.0045888 C69.3019071,25.9491633 69.842151,26.4023225 69.895953,27.0120033 C69.964873,27.793725 70,28.5874186 70,29.3704706 C70,44.0542459 58.0203703,56 43.2955014,56" id="Fill-7" fill="#3E3D3D"></path>
                    <path d="M68.626341,33 C68.5924395,33 68.5580243,32.9991697 68.5236091,32.9966788 C67.8168137,32.9514282 67.2887717,32.4515948 67.3447606,31.8803567 C67.5291644,29.9918667 67.4197549,28.0859407 67.0191005,26.2148867 C66.8978768,25.6502909 67.3663343,25.1130946 68.0649112,25.0151206 C68.7660564,24.9183921 69.4286772,25.2957579 69.5493872,25.8607689 C69.9870251,27.902447 70.1067077,29.9827335 69.9048395,32.0439234 C69.8519326,32.5873469 69.2894755,33 68.626341,33" id="Fill-9" fill="#3E3D3D"></path>
                    <g id="Group-13" transform="translate(0.000000, 17.000000)">
                        <mask id="mask-2" fill="white">
                            <use xlink:href="#path-1"></use>
                        </mask>
                        <g id="Clip-12"></g>
                        <path d="M1.0934,42.8031406 C0.6222125,42.8031406 0.2022125,42.4936302 0.0543375,42.032276 C-0.097475,41.5574844 0.0762125,41.0374531 0.4795875,40.7566094 C0.5425875,40.7127135 6.7809,36.3316406 7.438025,32.0517969 C7.8295875,29.5004635 7.00315,25.8091823 6.12815,21.9011094 C4.3278375,13.8583177 2.2873375,4.74276562 9.8924,1.05596354 C15.0234,-1.43131771 20.0454625,3.35735937 20.256775,3.56205729 C20.69515,3.98757812 20.713525,4.69663021 20.2979,5.14544271 C19.8827125,5.59335937 19.1919,5.61351562 18.753525,5.18889062 C18.7124,5.14947396 14.5994625,1.25259896 10.8282125,3.08054687 C4.81215,5.99693229 6.5652125,13.8278594 8.260525,21.4007865 C9.1840875,25.5252031 10.056025,29.4211823 9.5988375,32.3993802 C9.1744625,35.1657135 7.08015,37.8008073 5.154275,39.7017656 C7.8645875,38.8045885 11.380775,36.985151 13.9703375,33.308651 C18.3939,27.0297552 18.5325875,22.2625781 18.5339,22.215099 C18.545275,21.5983177 19.0462125,21.0841094 19.6434,21.1145677 C20.2458375,21.123526 20.727525,21.6269844 20.7209625,22.2433177 C20.718775,22.4636927 20.6089625,27.713724 15.7448375,34.6188073 C10.2879,42.3646302 1.505525,42.7879115 1.134525,42.8022448 C1.120525,42.8031406 1.1069625,42.8031406 1.0934,42.8031406" id="Fill-11" fill="#3E3D3D" mask="url(#mask-2)"></path>
                    </g>
                    <path d="M27.0853187,22 C27.0259249,22 26.9656641,21.9952918 26.9049698,21.9850194 C26.3149343,21.8874318 25.9165194,21.3361474 26.014931,20.7531898 C27.4503517,12.2861804 34.1640107,5.56076735 42.7210429,4.01691419 C43.3102114,3.91333435 43.874235,4.29598052 43.9821842,4.87722604 C44.0896999,5.45847156 43.6995221,6.01574819 43.1103536,6.12232414 C35.4489961,7.50438731 29.4380907,13.5261423 28.1531052,21.1063029 C28.0642314,21.6293383 27.6051222,22 27.0853187,22" id="Fill-14" fill="#3E3D3D"></path>
                    <path d="M3.0962954,80 C2.69854408,80 2.33236728,79.778907 2.13853477,79.4222763 C1.9451408,79.0656457 1.95478857,78.6297637 2.16396981,78.2825892 C8.13418644,68.365825 18.659467,62.5530153 33.4473085,61.0058146 C34.0502943,60.9432241 34.5879383,61.393065 34.6493332,62.0117652 C34.7107281,62.6300151 34.272193,63.1825225 33.6696458,63.2455632 C20.4859656,64.6248053 10.9009043,69.5010093 5.14337717,77.7485438 L78.9225197,77.7480935 C73.4785451,69.4523778 64.43946,64.5896826 52.6463745,63.6454219 C52.0429502,63.5972407 51.5916976,63.0555403 51.6386209,62.4354893 C51.6855442,61.8154382 52.2152945,61.3507377 52.8169647,61.40072 C66.1396605,62.46746 76.1794827,68.3131409 81.851057,78.3069049 C82.0483978,78.65498 82.0497134,79.0850082 81.8545652,79.4344342 C81.6585401,79.7838602 81.2958715,79.9995497 80.9038212,79.9995497 L3.0962954,80 Z" id="Fill-16" fill="#3E3D3D"></path>
                    <path d="M80.8862902,22 L19.1137098,22 C18.4984965,22 18,21.5524 18,21 C18,20.4476 18.4984965,20 19.1137098,20 L80.8862902,20 C81.5015035,20 82,20.4476 82,21 C82,21.5524 81.5015035,22 80.8862902,22" id="Fill-18" fill="#3E3D3D"></path>
                    <path d="M61,26 C55.8693473,26 51.0346518,25.5765935 47.385529,24.8077129 C43.0887,23.9018479 41,22.66015 41,21.0107124 C41,20.4559454 41.4877411,20.0064274 42.0896807,20.0064274 C42.6916204,20.0064274 43.1793614,20.4559454 43.1793614,21.0107124 C43.3510951,21.6317622 48.2472486,23.9914301 61,23.9914301 C73.7527514,23.9914301 78.6489049,21.6317622 78.8219462,20.9982592 C78.8219462,20.4434922 79.3092514,20 79.911191,20 C80.5126948,20 81,20.4559454 81,21.0107124 C81,22.66015 78.9113,23.9018479 74.614471,24.8077129 C70.9653482,25.5765935 66.1306527,26 61,26" id="Fill-20" fill="#3E3D3D"></path>
                    <path d="M53.9647867,40 L50.0351932,40 C49.4633525,40 49,39.5239893 49,38.9365266 C49,38.349064 49.4633525,37.8730533 50.0351932,37.8730533 L52.4119969,37.8730533 L50.628566,33.4728259 C50.4086909,32.9304545 50.6583795,32.3081099 51.1863281,32.0822282 C51.7134485,31.8559211 52.3196576,32.1128562 52.5395327,32.6552276 L54.9204771,38.5277275 C55.0533959,38.8561281 55.0181993,39.2304707 54.8260675,39.5265417 C54.6339356,39.8226126 54.3109553,40 53.9647867,40" id="Fill-22" fill="#3E3D3D"></path>
                    <path d="M48.6581323,47 C45.4882494,47 42.6989994,44.9821907 42.025504,42.2016574 C41.895833,41.6668785 42.2733786,41.1392352 42.8683656,41.0226859 C43.4637937,40.9069294 44.0508418,41.2454774 44.1805128,41.7802563 C44.6348024,43.6561451 46.5176784,45.017869 48.6581323,45.017869 C50.5044005,45.017869 52.162337,44.0303714 52.8812614,42.501752 C53.1189916,41.9974979 53.7660234,41.7620207 54.326608,41.9749016 C54.8876336,42.1881789 55.149622,42.7697361 54.9127739,43.2739902 C53.8476192,45.5375838 51.39225,47 48.6581323,47" id="Fill-24" fill="#3E3D3D"></path>
                    <path d="M39.0200818,33 C38.9189365,33 38.8161598,32.9804684 38.7146066,32.9392936 C38.177476,32.7212786 37.8785263,31.9801332 38.0469659,31.2849134 C38.4837669,29.4837821 39.7040363,28.2026139 41.1559612,28.0215506 C42.8399494,27.8103981 44.4350275,29.1702205 44.9509503,31.2516568 C45.1230604,31.9458209 44.8277813,32.6890779 44.2914664,32.9118438 C43.7547436,33.1346098 43.1813148,32.7524236 43.0092046,32.0582596 C42.7840747,31.1503036 42.0862535,30.5601322 41.3513185,30.6488163 C40.717121,30.7279985 40.1836609,31.2875528 39.9927899,32.0751518 C39.8561622,32.6389291 39.4536201,33 39.0200818,33" id="Fill-26" fill="#3E3D3D"></path>
                    <path d="M56.0202722,33 C55.9191269,33 55.8163502,32.9804676 55.7143892,32.9392913 C55.1772585,32.7212678 54.8783088,31.9800934 55.0471562,31.2848466 C55.4839573,29.4831172 56.7042267,28.2024271 58.1561517,28.0213567 C59.8360614,27.8112517 61.4352181,29.1705993 61.9511408,31.2515887 C62.1228432,31.9457798 61.8275641,32.6890658 61.2916569,32.9118404 C60.7549341,33.1340871 60.1810975,32.752414 60.0089873,32.0582229 C59.7842652,31.1502316 59.0872597,30.5600372 58.3519168,30.6487247 C57.7169036,30.72791 57.1838514,31.2874861 56.9929803,32.0751158 C56.8559447,32.6389151 56.4538105,33 56.0202722,33" id="Fill-28" fill="#3E3D3D"></path>
                    <path d="M28.5041525,40 C26.0206695,40 24,37.308407 24,34 C24,30.691593 26.0206695,28 28.5041525,28 C29.6777458,28 30.7851016,28.5878243 31.6228366,29.6555415 C31.995635,30.1305285 31.9310959,30.8329741 31.4784727,31.2250056 C31.0262741,31.6170371 30.3571052,31.5487995 29.9843067,31.0733665 C29.5575841,30.529696 29.0319298,30.2299859 28.5041525,30.2299859 C27.2133697,30.2299859 26.122998,31.9564409 26.122998,34 C26.122998,36.0435591 27.2133697,37.7700141 28.5041525,37.7700141 C29.279896,37.7700141 29.8276295,37.156768 30.0849368,36.7910503 C30.4331085,36.2964395 31.0984561,36.1911841 31.5697616,36.5577938 C32.0410672,36.9244035 32.1404235,37.6223891 31.7918272,38.1174459 C30.948997,39.3136103 29.7507769,40 28.5041525,40" id="Fill-30" fill="#3E3D3D"></path>
                    <path d="M44.2963489,12.4914625 C44.2948951,12.0709093 43.9590616,11.7418274 43.5309102,11.7418274 C43.1005782,11.7418274 42.7512968,12.0805567 42.7549314,12.4950356 C42.7582025,12.9220204 43.1053031,13.2618216 43.5345448,13.2586058 C43.9605154,13.25539 44.2978027,12.9155888 44.2963489,12.4914625 Z M45,13.8971177 C44.7561209,13.9242732 44.5547662,13.8703195 44.3955724,13.6805882 C44.0339336,13.9878743 43.615959,14.0575497 43.1649099,13.9571457 C42.7999999,13.8763938 42.5121427,13.6712982 42.2915248,13.3779472 C41.8499255,12.7901732 41.9193457,11.9797954 42.4365438,11.4474044 C42.9348422,10.9346654 43.8394845,10.826758 44.3944821,11.3123415 C44.5514951,11.1297564 44.7546671,11.0682991 45,11.1026008 L45,13.8971177 Z" id="Fill-32" fill="#3E3D3D"></path>
                    <path d="M49.8272062,12.2114957 C50.260177,12.2114957 50.6743229,12.212926 51.0884689,12.210423 C51.1707813,12.2097078 51.2132294,12.1428417 51.1844385,12.0677514 C51.172996,12.0384304 51.1523256,12.0108973 51.1305479,11.9872974 C50.9378704,11.7795476 50.6916713,11.7076754 50.4148358,11.7520144 C50.1431678,11.7952808 49.9541814,11.9529704 49.8272062,12.2114957 M49.8128108,12.7457097 C49.926867,13.0185378 50.1129005,13.1851668 50.3912125,13.2413058 C50.6735847,13.2978023 50.9201529,13.2216393 51.1231656,13.0210409 C51.1497418,12.9945805 51.1755798,12.9745564 51.2176588,12.9749139 C51.4520462,12.9763442 51.6864336,12.9756291 51.9208211,12.9756291 C51.9481355,12.9756291 51.9750808,12.9763442 51.9942748,13.0053076 C52.0119922,13.043568 51.9843087,13.077895 51.969175,13.1118644 C51.7078423,13.7025749 51.0441752,14.0551418 50.3834611,13.9929241 C49.7371424,13.9321367 49.1487746,13.3997106 49.026967,12.7811094 C48.8516378,11.8878922 49.5533236,11.0257838 50.4905041,11.0007537 C51.0150152,10.9868083 51.4487242,11.1659524 51.7632094,11.5746583 C51.9289416,11.7895596 52.0160525,12.0370001 51.9558869,12.3144767 C51.9060565,12.5458264 51.713379,12.7274735 51.470871,12.7360552 C51.1264876,12.7485703 50.7809969,12.7439218 50.4362444,12.7457097 C50.2358155,12.7467824 50.0350174,12.7457097 49.8128108,12.7457097" id="Fill-34" fill="#3E3D3D"></path>
                    <path d="M40.9489992,12.9245054 C41.006253,12.9445523 40.9989128,12.9828877 40.9989128,13.0170027 C40.9996468,13.2051626 41.0011149,13.3936743 40.9985458,13.5818343 C40.9963437,13.7597949 40.9383559,13.8378725 40.7625574,13.8927378 C39.4490231,14.3031727 38.2621078,13.4787859 38.0396988,12.3878099 C37.8338053,11.3791318 38.4463476,10.3985898 39.4699427,10.085576 C39.9466907,9.93962018 40.5441855,9.98252769 40.9912055,10.1977686 L40.9912055,11.0552153 C40.9310157,11.0819446 40.9034898,11.0418507 40.8708258,11.0175833 C40.178642,10.5016382 39.1238509,10.8185206 38.8625386,11.621102 C38.6911443,12.1472465 38.8889635,12.6962515 39.3671795,13.0208714 C39.8020882,13.3163001 40.4230717,13.2990668 40.8675227,12.9800741 C40.8939475,12.9610823 40.9214734,12.9431455 40.9489992,12.9245054" id="Fill-36" fill="#3E3D3D"></path>
                    <path d="M47.0199471,10.8433396 L47.994247,10.8433396 C47.991299,11.0639793 48.0173393,11.2741309 47.9780332,11.4823403 C47.9583802,11.5879987 47.8217915,11.6470432 47.6444227,11.6493739 C47.4439616,11.6517046 47.2439919,11.6497623 47.0509007,11.6497623 C47.0125772,11.6781192 47.0238777,11.7080299 47.0238777,11.7352214 C47.0228951,12.1054145 47.0224038,12.4752191 47.0238777,12.8454122 C47.0248604,13.0594483 47.1182124,13.143742 47.3800892,13.1845293 C47.5810416,13.2156053 47.7667629,13.1794794 47.9770505,13.100624 C48.0139,13.3931271 47.9873684,13.6700921 47.9937556,13.9431727 C47.185524,14.1420592 46.0333641,13.8223646 46.0122371,12.9293175 C45.9896361,11.9780028 46.0053585,11.0262997 46.0048672,10.0745965 C46.0048672,10.0571163 46.0087978,10.039636 46.0122371,10.0124445 C46.3109634,9.97321101 46.5713663,10.0244864 46.7890238,10.1985122 C47.0086466,10.3744801 47.0405828,10.594343 47.0199471,10.8433396" id="Fill-38" fill="#3E3D3D"></path>
                    <path d="M55,11.0434739 L55,11.8190715 C54.9475084,11.8472077 54.9083872,11.8298077 54.8677805,11.8149992 C54.7073343,11.7565054 54.5359937,11.7572458 54.3671291,11.7768672 C54.1324023,11.8038927 54.029895,11.9008887 54.0293998,12.0826636 C54.027419,12.539137 54.0284094,12.9956104 54.0284094,13.4520838 C54.0284094,13.5997991 54.0289046,13.7475143 54.0279142,13.8952295 C54.0279142,13.9278083 54.0388087,13.9629786 53.9986972,14 L53.0285922,14 C52.9929375,13.9788978 53.0018512,13.9466892 53.0018512,13.9174424 C53.0018512,13.2932622 52.9959087,12.6687118 53.0053176,12.0445316 C53.0142313,11.4666281 53.6015434,11.0260739 54.3755475,11.0042313 C54.5805621,10.9986781 54.7870622,10.989793 55,11.0434739" id="Fill-40" fill="#3E3D3D"></path>
                    <path d="M40.635399,18.2134786 C40.9704661,18.2134786 41.2858233,18.2134786 41.6007611,18.2134786 C41.8230209,18.2138344 41.9165377,18.2924712 41.9173764,18.4810573 C41.9182151,18.6475824 41.9173764,18.8141075 41.9173764,18.971737 C41.87586,19.0087426 41.8347629,18.9987795 41.7978594,18.9987795 C40.952853,18.9991354 40.108266,18.9984237 39.2632596,18.999847 C39.1580008,19.0002028 39.0749679,18.9781418 39.0242256,18.893456 C38.9722252,18.8066352 39.0112255,18.7376056 39.0724518,18.6682201 C39.6859725,17.9718749 40.2990739,17.2751738 40.9121753,16.5784727 C41.0157567,16.4610512 41.0979509,16.3358016 41.071112,16.1817303 C41.0316923,15.9586294 40.8354328,15.8038465 40.5750115,15.7853437 C40.3338806,15.7682642 40.1120402,15.8981395 40.028588,16.10594 C40.0189428,16.130136 40.0097169,16.1546878 39.9979749,16.1860002 L39.0976132,16.1860002 C39.0670001,16.0714252 39.105581,15.9664575 39.1450007,15.8668271 C39.3689379,15.3056945 39.9417809,14.9648163 40.6278506,15.0028893 C41.3613077,15.0438089 41.9043763,15.4960597 41.9890866,16.0885047 C42.0415064,16.4560697 41.9014408,16.7691938 41.6473099,17.0563428 C41.3239849,17.4224845 41.0014986,17.788982 40.6785929,18.1558353 C40.6672702,18.1686449 40.6580444,18.1828778 40.635399,18.2134786" id="Fill-42" fill="#3E3D3D"></path>
                    <path d="M46.0231866,17.9951959 C45.9949282,17.9672218 46.0012447,17.9356148 46.0012447,17.9065509 C46.0009123,17.3114673 45.9982527,16.716747 46.0019097,16.1216634 C46.0052342,15.6112285 46.2535758,15.229038 46.7027185,15.0837185 C47.1551856,14.9376723 47.596017,14.9696426 47.9996137,15.2838961 C48.3250842,15.0136018 48.6994252,14.9670995 49.0927159,15.0303135 C49.6538949,15.1207749 49.9863469,15.5294862 49.9956555,16.1558135 C50.0042993,16.7407247 49.9973178,17.325636 49.9976503,17.9105472 C49.9976503,17.9374313 49.9986476,17.9639521 49.9750435,17.9970123 C49.8124745,17.9970123 49.6415942,18.0057315 49.4717112,17.9933794 C49.3806193,17.98684 49.3187833,17.9145435 49.3034905,17.8095501 C49.2975063,17.7670441 49.2958441,17.723085 49.2955116,17.6798524 C49.2951792,17.1854026 49.2918547,16.6905895 49.2968414,16.1961397 C49.2991686,15.9425571 49.244314,15.8361105 48.9836717,15.7823422 C48.8516882,15.7554581 48.7153829,15.7598177 48.5837319,15.7997806 C48.4171734,15.8506424 48.3503506,15.9483698 48.3500181,16.1430981 C48.3490208,16.7182002 48.3496857,17.2929391 48.3490208,17.8676779 C48.3490208,17.9069142 48.3589943,17.9483303 48.3304035,17.9919262 L47.6684915,17.9919262 C47.6382384,17.9563229 47.6498742,17.9109105 47.6498742,17.8691311 C47.6488769,17.3143737 47.6492093,16.759253 47.6492093,16.2044956 C47.6492093,15.9233022 47.5770672,15.8223051 47.3240713,15.780889 C47.1821143,15.7576379 47.0368327,15.7576379 46.8985327,15.8143125 C46.7579055,15.8717138 46.7003913,15.960722 46.7003913,16.1249331 C46.6993939,16.7065746 46.7000589,17.2882162 46.6993939,17.8694944 C46.6993939,17.9087307 46.7097,17.9501468 46.6774521,17.9951959 L46.0231866,17.9951959 Z" id="Fill-44" fill="#3E3D3D"></path>
                    <path d="M51.826315,16.2112339 C52.2591001,16.2112339 52.6700273,16.2122918 53.0813189,16.210176 C53.1745789,16.2098233 53.2179303,16.1392953 53.1800434,16.0567776 C53.1665644,16.0278611 53.1450709,16.0014131 53.1228487,15.9781389 C52.9326856,15.7792499 52.6918852,15.7094272 52.4226695,15.7503335 C52.1465323,15.7922976 51.9552762,15.9509856 51.826315,16.2112339 M51.8186648,16.7454834 C52.0084636,17.2758539 52.6900637,17.4260785 53.0991694,17.0431115 C53.1519925,16.9933893 53.2019012,16.9718783 53.2743964,16.9732888 C53.4787671,16.9775205 53.6835021,16.9743467 53.8878728,16.9754047 C53.9232097,16.9754047 53.9625538,16.9655307 53.9913332,16.9983263 C54.0131911,17.0357061 53.9884189,17.0670911 53.9749399,17.0988286 C53.7235748,17.6923217 53.0478035,18.0551882 52.3873327,17.9931236 C51.7326907,17.9317642 51.1469008,17.3922251 51.0274113,16.7842738 C50.8503629,15.8853946 51.5530921,15.0235425 52.4969862,15.0006209 C53.0219384,14.9879259 53.4547235,15.1695354 53.7680191,15.5793031 C53.9304956,15.791945 54.0161055,16.0363245 53.9574536,16.3103257 C53.9068163,16.5476524 53.7148317,16.7296146 53.4652881,16.7359621 C53.016474,16.7479519 52.5672955,16.7433676 52.1184814,16.7451308 C52.0223069,16.7458361 51.9264968,16.7454834 51.8186648,16.7454834" id="Fill-46" fill="#3E3D3D"></path>
                    <path d="M43,17 C43,16.4475138 43.4476512,16 44.000307,16 C44.5523488,16 45,16.4475138 45,17 C45,17.5524862 44.5523488,18 44.000307,18 C43.4476512,18 43,17.5524862 43,17" id="Fill-48" fill="#FFFFFF"></path>
                    <g id="Group-52" transform="translate(41.000000, 0.000000)">
                        <mask id="mask-4" fill="white">
                            <use xlink:href="#path-3"></use>
                        </mask>
                        <g id="Clip-51"></g>
                        <path d="M5.8527,4.89836364 C5.2485125,4.89836364 4.75895,4.38972727 4.75895,3.762 C4.75895,3.06609091 4.213825,2.49972727 3.5440125,2.49972727 C2.8742,2.49972727 2.329075,3.06609091 2.329075,3.762 C2.329075,4.38972727 1.8395125,4.89836364 1.235325,4.89836364 C0.6311375,4.89836364 0.141575,4.38972727 0.141575,3.762 C0.141575,1.81290909 1.6680125,0.227 3.5440125,0.227 C5.4200125,0.227 6.94645,1.81290909 6.94645,3.762 C6.94645,4.38972727 6.4568875,4.89836364 5.8527,4.89836364" id="Fill-50" fill="#3E3D3D" mask="url(#mask-4)"></path>
                    </g>
                    <path d="M43.5,71 C34.8086814,71 28,67.5075316 28,63.0492935 C28,62.4696638 28.4901515,62 29.0950658,62 C29.6999802,62 30.1901317,62.4696638 30.1901317,63.0492935 C30.1901317,65.8756704 35.5384333,68.901413 43.5,68.901413 C50.8391313,68.901413 56.8098683,66.4410297 56.8098683,63.4165462 C56.8098683,62.8369165 57.3000198,62.3672527 57.9049342,62.3672527 C58.5098485,62.3672527 59,62.8369165 59,63.4165462 C59,67.8105676 52.481292,71 43.5,71" id="Fill-53" fill="#3E3D3D"></path>
                    <path d="M23.0504564,45 C22.5233038,45 22.0685138,44.6239814 22.0070898,44.1134129 C21.9401965,43.5644017 22.3541774,43.0674484 22.9313948,43.0045784 C24.8515259,42.7935434 26.5297475,41.69472 27.4199748,40.0649054 C27.6446352,39.6536475 27.8141823,39.2187634 27.9239882,38.7726667 C28.0565126,38.2344675 28.6232121,37.9004956 29.1882288,38.0266361 C29.7536662,38.1527765 30.1045403,38.6917766 29.9720159,39.2299758 C29.8222423,39.8378526 29.5916919,40.4293111 29.2866755,40.9883335 C28.0733411,43.2092062 25.7876109,44.7064732 23.1720422,44.9931924 C23.1312331,44.9979978 23.090424,45 23.0504564,45" id="Fill-55" fill="#3E3D3D"></path>
                    <path d="M31.1380097,31 C31.1016436,31 31.0652775,30.9986715 31.0284568,30.9951288 C30.403869,30.936674 29.9456561,30.3964105 30.0052056,29.7875069 C30.0961209,28.8655161 30.3056805,27.9528249 30.6293388,27.0746752 C31.9153352,23.5837755 34.8882641,20.9519834 38.5826057,20.034421 C39.189465,19.8838557 39.8095071,20.2412268 39.9645176,20.8333025 C40.1195281,21.4258211 39.7522305,22.0289678 39.1440074,22.1799759 C36.1828974,22.9155314 33.7990993,25.0247735 32.7685749,27.8226303 C32.5090118,28.5276299 32.340364,29.2596428 32.2680864,29.9982982 C32.2117189,30.570889 31.7166853,31 31.1380097,31" id="Fill-57" fill="#3E3D3D"></path>
                </g>
            </g>
        </g>
    </g>
</svg>
