<svg width="82px" height="83px" viewBox="0 0 82 83" version="1.1" xmlns="http://www.w3.org/2000/svg" xmlns:xlink="http://www.w3.org/1999/xlink">
    <!-- Generator: Sketch 49.3 (51167) - http://www.bohemiancoding.com/sketch -->
    <desc>Created with Sketch.</desc>
    <defs>
        <polygon id="path-1" points="0.421456407 0.364985294 18.7463721 0.364985294 18.7463721 14.8686618 0.421456407 14.8686618"></polygon>
        <polygon id="path-3" points="0.405973414 0.0972857143 12.677466 0.0972857143 12.677466 11.8286571 0.405973414 11.8286571"></polygon>
    </defs>
    <g id="Page-1" stroke="none" stroke-width="1" fill="none" fill-rule="evenodd">
        <g id="Group">
            <circle id="Oval" fill="#FFD93D" cx="41" cy="42" r="37"></circle>
            <g id="Page-1">
                <path d="M25.9454443,49 L13.0545557,49 C12.4720191,49 12,48.4950361 12,47.8718412 L12,45.2883574 C12,44.6656137 12.4720191,44.1601986 13.0545557,44.1601986 C13.6370922,44.1601986 14.1091114,44.6656137 14.1091114,45.2883574 L14.1091114,46.7436823 L24.8908886,46.7436823 L24.8908886,45.1281588 C24.8908886,44.5049639 25.3629078,44 25.9454443,44 C26.5279809,44 27,44.5049639 27,45.1281588 L27,47.8718412 C27,48.4950361 26.5279809,49 25.9454443,49" id="Fill-1" fill="#3E3D3D"></path>
                <path d="M4.38755115,32 C4.01534466,32 3.65309254,31.8138776 3.45184136,31.4790253 C3.15624016,30.9870403 3,30.4244716 3,29.8526598 C3,28.1582315 4.3494649,26.7646241 6.05945074,26.6314395 C6.42300126,25.0542305 7.87027856,23.869013 9.59974032,23.8559886 C9.8265266,22.7455562 10.6540368,21.8418331 11.7386292,21.4792515 C11.9169421,20.0839635 13.1460891,19 14.6310198,19 C15.2919027,19 15.9164306,19.2138517 16.4228045,19.6024821 C17.2126613,19.5066899 18.0077117,19.6919721 18.6482531,20.1053907 C19.0697986,19.8869175 19.5424142,19.769278 20.029745,19.769278 C21.3415565,19.769278 22.4568776,20.6007369 22.8459632,21.7498222 C23.2527935,21.808642 23.6384167,21.9472885 23.9824913,22.1531575 C24.5715297,21.6216793 25.3574913,21.307834 26.2010151,21.307834 C27.7820271,21.307834 29.1033601,22.4048219 29.3998269,23.8559886 C31.1297214,23.869013 32.5769987,25.0542305 32.9405493,26.6314395 C34.6505351,26.7646241 36,28.1582315 36,29.8526598 C36,30.3648116 35.9640777,30.8761231 35.5360403,31.4924698 C35.2019201,31.9735311 34.5293516,32.0999935 34.0337976,31.7756448 C33.5382436,31.4508758 33.4079714,30.798397 33.7420916,30.3173357 C33.8195625,30.2055782 33.8360088,30.1828906 33.8360088,29.8526598 C33.8360088,29.1022882 33.0478832,28.5208131 32.2770696,28.7897033 C31.9165486,28.9149053 31.5149119,28.8472626 31.2210419,28.6103031 C30.9263063,28.3733437 30.7821845,28.0027794 30.8423434,27.6359964 C30.8570585,27.5465064 30.8644161,27.4717213 30.8644161,27.4065994 C30.8644161,26.6070713 30.1944444,25.9566932 29.3708294,25.9566932 C29.1501023,25.9566932 28.9345688,26.0045892 28.7294224,26.0999612 C28.3373072,26.2814621 27.8703179,26.2176007 27.5452864,25.9369465 C27.2198222,25.6562924 27.0995042,25.2147243 27.2388653,24.81433 C27.2786827,24.7017323 27.2985914,24.5870338 27.2985914,24.4735958 C27.2985914,23.8862388 26.806067,23.4085386 26.2010151,23.4085386 C25.729265,23.4085386 25.3111819,23.7009566 25.1614337,24.1362226 C25.0238039,24.5361968 24.6528958,24.8176912 24.2196648,24.8504622 C23.7868665,24.8853339 23.3752754,24.6613987 23.1748898,24.2874733 C23.0199481,23.9975761 22.7208845,23.8173357 22.3941218,23.8173357 C22.3348285,23.8173357 22.2634167,23.8290996 22.1682011,23.8530476 C21.8245593,23.9404369 21.4571136,23.8597699 21.1870475,23.6349945 C20.9169814,23.409799 20.7780532,23.0703251 20.8157066,22.7266499 L20.8273922,22.6367397 C20.8295562,22.2182794 20.4707664,21.8699825 20.029745,21.8699825 C19.7146679,21.8699825 19.5134167,22.0481223 19.4216635,22.1539978 C19.210458,22.3993601 18.8910529,22.5476698 18.5655886,22.5296038 C18.2362291,22.5216211 17.9285096,22.3682697 17.7294224,22.1132441 C17.436418,21.737218 16.9309097,21.5775645 16.4531004,21.7447806 C16.0094822,21.9014931 15.5108986,21.7590653 15.2239534,21.3931226 C15.0781004,21.2074203 14.8621341,21.1007045 14.6310198,21.1007045 C14.2172647,21.1007045 13.8805477,21.4275742 13.8805477,21.8292289 C13.8805477,21.8867882 13.8943972,21.9573719 13.9233947,22.0464417 C14.0298631,22.3724711 13.9653761,22.7287506 13.751141,23.0005817 C13.5373387,23.2724129 13.2006217,23.4165212 12.8474583,23.4123198 C12.8379367,23.4118997 12.7929257,23.4093788 12.7834042,23.4085386 C12.1935002,23.4085386 11.7014086,23.8862388 11.7014086,24.4735958 C11.7014086,24.5870338 11.7213173,24.7017323 11.7607019,24.81433 C11.9004958,25.2147243 11.779745,25.6562924 11.4547136,25.9369465 C11.1296821,26.2176007 10.66226,26.2814621 10.2701448,26.0999612 C10.0654312,26.0045892 9.8494649,25.9566932 9.6287378,25.9566932 C8.80555556,25.9566932 8.13558388,26.6070713 8.13558388,27.4065994 C8.13558388,27.4717213 8.14250866,27.5465064 8.1572238,27.6359964 C8.21738275,28.0027794 8.07369374,28.3733437 7.77895814,28.6103031 C7.48422254,28.8472626 7.08258577,28.9149053 6.72293044,28.7897033 C5.95211678,28.5212333 5.16399119,29.1022882 5.16399119,29.8526598 C5.16399119,30.053067 5.21809097,30.2492728 5.32109695,30.4202702 C5.62232452,30.9214983 5.44790683,31.564734 4.93157853,31.856732 C4.76019043,31.9542046 4.57278879,32 4.38755115,32" id="Fill-3" fill="#3E3D3D"></path>
                <path d="M21.0701751,30 C20.4062439,30 19.7779892,29.7790534 19.2689463,29.3783169 C18.0959721,29.5286472 16.9360503,29.0386657 16.2203447,28.0963934 C15.8579235,27.6194086 15.9523358,26.9405394 16.4317933,26.5792267 C16.9103807,26.2183472 17.5930203,26.3127911 17.9554415,26.790209 C18.2495552,27.1770822 18.7533771,27.3443085 19.2384907,27.1697173 C19.6848822,27.009856 20.1860937,27.1549875 20.4741163,27.5323297 C20.6207381,27.7238167 20.8378427,27.8338568 21.0701751,27.8338568 C21.486111,27.8338568 21.8246028,27.4972382 21.8246028,27.0830716 C21.8246028,26.4847828 22.3114567,26 22.9123014,26 C23.5131461,26 24,26.4847828 24,27.0830716 C24,28.6912163 22.685625,30 21.0701751,30" id="Fill-5" fill="#3E3D3D"></path>
                <path d="M17.561865,25 C16.5293224,25 15.5898618,24.4123865 15.1103128,23.4673047 C14.8609159,22.9748822 15.0486509,22.3687928 15.5297709,22.1133436 C16.0116765,21.8570911 16.6039451,22.0502846 16.8537348,22.5423055 C16.9943397,22.8194438 17.2657307,22.9917515 17.561865,22.9917515 C17.6148864,22.9917515 17.6796903,22.9809069 17.766881,22.9572096 C18.2912037,22.8154273 18.8284872,23.1351404 18.9671283,23.6713428 C19.1057694,24.2075451 18.7931396,24.7574036 18.2688169,24.8987843 C18.0170635,24.9670647 17.7857331,25 17.561865,25" id="Fill-7" fill="#3E3D3D"></path>
                <path d="M3.19551177,32.2028144 C3.88808738,39.2421282 11.1603454,44.7971856 19.9997858,44.7971856 C28.8396546,44.7971856 36.1119126,39.2421282 36.8044882,32.2028144 L3.19551177,32.2028144 Z M19.9997858,47 C9.52334847,47 1,39.8677275 1,31.1014072 C1,30.4929899 1.47927774,30 2.07077242,30 L37.9292276,30 C38.5207223,30 39,30.4929899 39,31.1014072 C39,39.8677275 30.4766515,47 19.9997858,47 Z" id="Fill-9" fill="#3E3D3D"></path>
                <path d="M11.9753421,42 C11.819739,42 11.6620884,41.9633776 11.5138559,41.8859232 C8.19541346,40.1587749 5.56490086,37.5430061 4.10673533,34.5201809 C3.85572284,33.9998896 4.06251127,33.3684681 4.56904054,33.1104271 C5.07556982,32.8511234 5.68979288,33.0641229 5.94121485,33.585677 C7.20405745,36.2035506 9.51148872,38.484666 12.4384663,40.0084966 C12.9429482,40.2711679 13.1448228,40.9038523 12.889306,41.4224598 C12.7091339,41.7886843 12.3491992,42 11.9753421,42" id="Fill-11" fill="#3E3D3D"></path>
                <path d="M43.0086131,7.55020721 L37.0045599,19.2362289 L43.4211086,7.76796722 L43.0086131,7.55020721 Z M33.3909772,29 C33.2123888,29 33.031187,28.9563616 32.8634882,28.8639 C32.3586494,28.5865152 32.163509,27.9686644 32.4074345,27.4579653 C32.1465213,27.537033 31.8559885,27.5201825 31.5946397,27.387539 C31.0588747,27.1166352 30.8458754,26.4659475 31.1189849,25.9349415 L41.5711947,5.58993508 C41.704047,5.33156111 41.9357762,5.13713253 42.2141127,5.0498557 C42.4928848,4.96301094 42.7951782,4.99023094 43.0530424,5.126763 L45.4226048,6.37715479 C45.680469,6.51368686 45.8725604,6.74656909 45.9553208,7.02438593 C46.0380813,7.30220276 46.0049771,7.60162277 45.8634131,7.85481199 L34.3440291,28.4435022 C34.1449685,28.7995225 33.7738532,29 33.3909772,29 Z" id="Fill-13" fill="#3E3D3D"></path>
                <path d="M34.2362949,3.32068008 L31.651838,16.8507439 L34.6813677,3.41451207 L34.2362949,3.32068008 Z M30.91005,26 C30.8329209,26 30.7545274,25.9915084 30.6757125,25.9732515 C30.3457011,25.8976764 30.0873397,25.6734986 29.954155,25.3869077 C29.7320401,25.7550178 29.3004543,25.9630616 28.8549601,25.8772966 C28.2834461,25.7664815 27.9091804,25.2102828 28.0191842,24.6341289 L32.3691807,1.86097696 C32.422286,1.58160388 32.5849736,1.33534797 32.8197327,1.1778291 C33.0544917,1.02031024 33.3427775,0.96426579 33.6192621,1.02243313 L36.1615719,1.55697828 C36.4380565,1.61472105 36.6799806,1.78285439 36.8329744,2.02231703 C36.9855467,2.26220425 37.0365446,2.55304097 36.9737455,2.83114032 L31.9367521,25.1733444 C31.8254839,25.6658562 31.3913693,26 30.91005,26 Z" id="Fill-15" fill="#3E3D3D"></path>
                <path d="M9.98626928,75.0959582 L9.98626928,75.0963936 L9.98626928,75.0959582 Z M12.5624897,77 C12.4142428,77 12.2638412,76.969086 12.1203348,76.9033393 C12.0565541,76.8746023 11.9858783,76.8354156 11.9147715,76.7840373 C11.8298743,76.764444 11.754458,76.7370132 11.6911083,76.7078408 C11.6273277,76.6791039 11.55579,76.6399171 11.4842522,76.5881035 C11.3989241,76.5685101 11.3235078,76.5402085 11.2601581,76.5114716 C11.1963775,76.4827346 11.1257017,76.4439832 11.0545949,76.392605 C10.9679739,76.3725762 10.8916957,76.3438393 10.8274841,76.3151023 C10.7641344,76.2859299 10.6934586,76.2471785 10.6227828,76.1953649 C10.5365927,76.1757715 10.4603145,76.1479054 10.3961029,76.118733 C10.1159853,75.9911583 9.88068648,75.7242528 9.78889408,75.428175 C9.68675888,75.0994415 9.75140141,74.8146843 9.8362986,74.6091714 C9.76303707,74.3993045 9.66995182,74.1811648 9.57341897,73.9551877 C9.31484884,73.3499698 9.02180269,72.6642012 9.00111708,71.8691452 C8.98086242,71.0723474 9.2398635,70.3587128 9.46783617,69.7295473 C9.59841408,69.3703353 9.72166585,69.0307166 9.77553462,68.726366 C9.82897245,68.4228862 9.8285415,68.0601908 9.82811055,67.6761604 C9.82724865,67.0125977 9.82638675,66.2602117 10.1060734,65.5213233 C10.3758483,64.808124 10.8576506,64.2577676 11.2834294,63.7718516 C11.5445853,63.4740321 11.7915197,63.1918873 11.9552808,62.9136613 C12.1130086,62.6471912 12.2375532,62.2984289 12.368993,61.9292024 C12.5870538,61.319195 12.8335574,60.6282016 13.3244097,60.0360459 C13.7967311,59.466096 14.4112661,59.1038361 14.9529705,58.7842462 C15.3011783,58.5787333 15.6304243,58.3849765 15.875635,58.165966 C16.1070552,57.9591469 16.3315803,57.658715 16.5686029,57.3413021 C16.9495629,56.8318741 17.381375,56.2540869 18.0101314,55.8360946 C18.6164784,55.4329063 19.2973797,55.2617907 19.8985553,55.1111393 C20.2950295,55.0114307 20.6695252,54.9173825 20.9677427,54.7736976 C21.2482913,54.6391564 21.5469398,54.4101315 21.8632573,54.1680443 C22.3627286,53.7853201 22.9294281,53.3512178 23.6409269,53.119145 C24.376559,52.8805411 25.1143457,52.895345 25.7629258,52.9079718 C26.1727595,52.91668 26.5597528,52.924082 26.8821035,52.8670434 C27.2255709,52.806957 27.5992047,52.6637076 27.9939551,52.5130562 C28.5946997,52.2831605 29.2756011,52.0232216 30.0232997,52.0014511 C30.8020267,51.9796807 31.5100779,52.206964 32.1353867,52.4076874 C32.522811,52.5326496 32.8891186,52.6497745 33.2127622,52.6898321 C33.5592462,52.7320668 33.8996969,52.7203107 34.2612641,52.7094255 C34.8395993,52.6907029 35.4933508,52.6689325 36.2182091,52.878364 C36.790511,53.0438193 37.1219117,53.6459894 36.9581506,54.2237766 C36.7948205,54.8024346 36.1979544,55.1355222 35.6265144,54.9718086 C35.2257307,54.8555545 34.8309803,54.8686167 34.3306471,54.8851622 C33.9242611,54.8977891 33.4635753,54.9134638 32.9528993,54.850765 C32.4284329,54.7863245 31.9470615,54.6317544 31.4820662,54.4819739 C30.9756997,54.3195665 30.4982068,54.164561 30.0853565,54.1776233 C29.6992251,54.1885085 29.241556,54.3639782 28.756737,54.5494622 C28.2848465,54.7297214 27.7974418,54.9156408 27.2518588,55.0118661 C26.7256686,55.1046082 26.2149926,55.0941584 25.7206927,55.0845794 C25.1927787,55.074565 24.6937383,55.0641152 24.3015736,55.1916899 C23.9391445,55.3096856 23.562925,55.5979261 23.1651579,55.9027121 C22.7764408,56.2005316 22.3743643,56.5083655 21.8947167,56.739132 C21.3999858,56.9777359 20.8781051,57.1079231 20.4182812,57.2237418 C19.9425122,57.3434792 19.4930311,57.4558146 19.1948135,57.6543609 C18.8767723,57.8659695 18.5910523,58.2482582 18.2885252,58.6527528 C17.9976338,59.0424435 17.6968306,59.4451964 17.303373,59.7965712 C16.8995727,60.1575249 16.4419036,60.4274782 16.0389651,60.6647759 C15.6114625,60.9168775 15.2076621,61.1546105 14.9766728,61.4337075 C14.7310312,61.7302207 14.568132,62.1856581 14.3961829,62.6676554 C14.2354384,63.1174325 14.0695226,63.5828843 13.806212,64.0291781 C13.5390229,64.482003 13.2123626,64.8547128 12.8969071,65.2147957 C12.5637825,65.5953428 12.2487579,65.9549903 12.1190419,66.2985276 C11.9815688,66.6607876 11.9824307,67.1527993 11.9828616,67.673548 C11.9832926,68.1363873 11.9841545,68.6149014 11.8966716,69.1095255 C11.8091887,69.6015372 11.6475824,70.0473956 11.4911474,70.4788855 C11.313596,70.9687202 11.1455254,71.4311241 11.1550063,71.812542 C11.1649181,72.1874288 11.3441934,72.6067273 11.5514805,73.0922079 C11.6454276,73.3125246 11.7467009,73.5489515 11.8376314,73.7997469 C11.8665051,73.8167278 11.8958097,73.8358858 11.9251143,73.8572208 C12.0113044,73.8772496 12.0880135,73.9055511 12.1522251,73.9347235 C12.2151438,73.9634605 12.2853887,74.0022118 12.3564955,74.0531547 C12.4413927,74.072748 12.516809,74.1010496 12.5801586,74.1297866 C12.6439393,74.1589589 12.7150461,74.1977103 12.7865838,74.2495239 C12.871481,74.2691173 12.9468973,74.2965481 13.010247,74.325285 C13.3196692,74.4663574 13.8036263,74.839938 13.6325391,75.7765019 C13.6562413,75.9689525 13.6299534,76.1696758 13.5450562,76.3582077 C13.3653499,76.7613961 12.9731852,77 12.5624897,77 Z" id="Fill-17" fill="#3E3D3D"></path>
                <path d="M17.129167,74 C16.6517445,74 16.2086495,73.6756731 16.0546277,73.1668402 C15.8635684,72.5350033 16.1896791,71.8584814 16.7831825,71.6547561 L18.5243969,71.058475 C19.1174486,70.8542692 19.754313,71.2021399 19.9453723,71.8334962 C20.1364316,72.4653331 19.8103209,73.141855 19.2168175,73.3455804 L17.4756031,73.9418614 C17.3604255,73.9812611 17.2438929,74 17.129167,74" id="Fill-19" fill="#3E3D3D"></path>
                <path d="M19.1682144,71 C18.6742823,71 18.2158648,70.670613 18.0565167,70.1533535 C17.8588504,69.5121468 18.1962383,68.824582 18.8102655,68.6181662 L20.4733728,68.0594283 C21.0878673,67.8520365 21.7458204,68.2048465 21.9434867,68.8470291 C22.141153,69.4877478 21.8037651,70.1758006 21.1892706,70.3817284 L19.5266306,70.9409543 C19.4074701,70.9809688 19.2869077,71 19.1682144,71" id="Fill-21" fill="#3E3D3D"></path>
                <path d="M23.9484546,55.935181 C23.9389815,55.9386211 23.929939,55.9416312 23.9204658,55.9446413 C16.0719808,58.5014976 11.56794,67.1752867 13.666668,75.691261 C13.6847531,75.7660833 13.7312575,75.8056445 13.766997,75.8258551 C13.8147932,75.8525159 13.8651731,75.856816 13.9177058,75.8417655 L27.5336023,71.5687279 L30.1688537,70.7216026 L43.7158547,66.2597894 C43.7675263,66.2425888 43.8058494,66.2090478 43.828671,66.1587363 C43.8458948,66.1217552 43.8609657,66.0624135 43.8321157,65.9914613 C42.5954422,62.9147194 35.6055669,52.1919192 23.9876389,55.9218506 C23.9751516,55.9261507 23.9592195,55.9313109 23.9484546,55.935181 M13.8625895,78 C13.4629958,78 13.0646939,77.898087 12.7111741,77.699421 C12.1453701,77.3816415 11.7315667,76.8368153 11.5756907,76.2055564 C9.21472932,66.6227202 14.3168689,56.8472382 23.1949105,53.9197108 C23.2138567,53.9124006 23.2336642,53.9050903 23.2539022,53.8990702 C23.2607918,53.8969201 23.2719873,53.89348 23.2827522,53.8900399 C23.2952395,53.8853098 23.308588,53.8814396 23.3163387,53.8788596 C35.3377358,50.0139041 43.6758092,59.8310973 45.8300842,65.1899174 C46.0725101,65.7940854 46.0548556,66.4773758 45.7814267,67.0656334 C45.5092897,67.6491608 45.0024774,68.0998143 44.3905996,68.3014903 L30.8362785,72.7658837 L28.1863868,73.6177391 L14.5631702,77.8929268 C14.334954,77.9643089 14.0985564,78 13.8625895,78" id="Fill-23" fill="#3E3D3D"></path>
                <path d="M45.4162561,65.8556009 C45.2379769,65.7533183 45.0996045,65.6080597 45.0076454,65.4404536 C44.3227238,64.7893685 44.5010029,64.2083342 44.6714743,63.916098 C44.7066096,63.8563615 44.7525891,63.7893191 44.811148,63.7235659 C44.839343,63.6406224 44.8753458,63.5675633 44.9104811,63.5069673 C44.9456164,63.446801 44.9907284,63.3810479 45.0488535,63.3161543 C45.0770485,63.2332107 45.1126176,63.1610112 45.1473191,63.1012747 C45.1828882,63.0406787 45.228434,62.974066 45.2874266,62.9078831 C45.2987046,62.8739321 45.3117177,62.8417002 45.3251645,62.811617 C45.2540264,62.5571996 45.1989377,62.3087989 45.1477529,62.0775885 C45.0349729,61.5674644 44.9378086,61.127391 44.7274305,60.8209728 C44.514016,60.5098272 44.108008,60.2369301 43.6781426,59.9477022 C43.299462,59.6932848 42.9077684,59.4298425 42.5503425,59.0856054 C42.1911815,58.7400791 41.9135692,58.3563042 41.645066,57.9849923 C41.3427288,57.5672664 41.0573087,57.1727475 40.7345843,56.9617358 C40.428777,56.7623276 39.962475,56.6574663 39.4688456,56.5461587 C39.0012423,56.4412975 38.5180233,56.3321387 38.0361057,56.124565 C37.5615621,55.9204294 37.1555541,55.6440943 36.7629929,55.3772139 C36.3418029,55.0905646 35.9440365,54.8202461 35.5705611,54.7252693 C35.2196418,54.6358794 34.7516047,54.6810041 34.2553727,54.7269884 C33.7873356,54.7708238 33.2572696,54.8206758 32.7176606,54.766956 C32.1914985,54.7136658 31.7117497,54.5662584 31.2471828,54.4235784 C30.7648314,54.2753115 30.3106749,54.1339208 29.9259216,54.1506814 C29.5667606,54.1652932 29.1338589,54.3359075 28.6757985,54.5172659 C28.2324863,54.6921779 27.7297477,54.8911563 27.1862348,54.9878521 C26.6609403,55.0823992 26.1534302,55.0686469 25.6619696,55.0566136 C25.1583635,55.0432911 24.6846874,55.0316876 24.3198875,55.1481523 C23.9251574,55.2740717 23.5230533,55.5723246 23.0975257,55.8881975 C22.6993255,56.183442 22.2881122,56.4890008 21.8035919,56.7210707 C21.3021547,56.9613061 20.7955121,57.0953909 20.3053529,57.2251782 C19.8008792,57.3588332 19.3246005,57.4847527 19.0031775,57.7004917 C18.6587647,57.9308426 18.3572951,58.3326674 18.0380409,58.7576992 C17.7443791,59.1483502 17.4411744,59.5523238 17.0503482,59.9090239 C16.669065,60.256699 16.2834442,60.5124057 15.943369,60.7388888 C15.5252155,61.0160834 15.1951171,61.2356903 14.9348555,61.5614477 C14.5631152,62.0277364 13.8807962,62.1059526 13.4114578,61.737649 C12.9421194,61.3689157 12.8623059,60.6933343 13.2340462,60.2283349 C13.7051196,59.6382757 14.2525364,59.2746994 14.7353216,58.9536694 C15.0376588,58.7534016 15.3226452,58.5634481 15.5816055,58.3275103 C15.8227812,58.1079034 16.0535464,57.8006256 16.2977585,57.475298 C16.6920548,56.9501323 17.1388372,56.3544862 17.7886235,55.9199997 C18.41195,55.5022738 19.1202952,55.3148988 19.744923,55.1494416 C20.1557025,55.0407125 20.5434922,54.9380001 20.8592762,54.7862951 C21.1551069,54.6444746 21.466987,54.4132642 21.7975192,54.1683015 C22.3215124,53.7793695 22.9153426,53.3388664 23.655353,53.1024989 C24.371506,52.8742968 25.0876591,52.8919169 25.7174921,52.9086775 C26.1178611,52.9181322 26.4943729,52.9284464 26.8014815,52.8734372 C27.1298448,52.8145602 27.4903071,52.67231 27.8724578,52.5214645 C28.451106,52.2924029 29.107399,52.0332581 29.8365651,52.003175 C30.5908899,51.9713728 31.2827519,52.1845334 31.8904626,52.3714786 C32.2691432,52.4875135 32.6270028,52.5979616 32.9371479,52.6293341 C33.2637761,52.663285 33.6459269,52.6267555 34.0501998,52.5880772 C34.6787315,52.5292002 35.3918482,52.461728 36.1088688,52.6439459 C36.8545182,52.8330399 37.4578912,53.2434598 37.9905599,53.6057468 C38.3128505,53.8249239 38.6173565,54.0316381 38.9006078,54.1536897 C39.1968723,54.2813281 39.562106,54.3638419 39.9490282,54.4506532 C40.5792949,54.5924737 41.2932792,54.7532037 41.9283174,55.1674915 C42.5863454,55.5976803 43.0227172,56.2010622 43.4079044,56.733104 C43.6308618,57.0412412 43.8416736,57.3326179 44.0615947,57.5444892 C44.2832508,57.75722 44.5808165,57.9579175 44.8966005,58.1697887 C45.4487888,58.5415304 46.0747179,58.9626943 46.5210664,59.6129199 C46.9669812,60.2627157 47.1261746,60.9825622 47.2667158,61.6181759 C47.3192019,61.855403 47.3695191,62.0844646 47.4315481,62.2954763 C47.6211053,62.4110815 47.839725,62.6023243 47.9472998,62.9263627 C48.0435966,63.2173097 48.0058587,63.5671336 47.851003,63.8318652 C47.8158677,63.8924612 47.7698882,63.9590739 47.7108956,64.0243973 C47.6831343,64.1073408 47.6475652,64.1799701 47.6124299,64.2405661 C47.5768608,64.3007324 47.5313151,64.3673451 47.47319,64.4326685 C47.444995,64.515612 47.4094259,64.5882413 47.3742906,64.6484075 C47.3391553,64.7085738 47.2931757,64.7751865 47.2346169,64.8409396 C47.2064219,64.9234534 47.1712866,64.9956529 47.1361513,65.0558192 C47.101016,65.1159855 47.0554702,65.1821684 46.9969113,65.2479215 C46.9687163,65.330865 46.9331472,65.4034943 46.8980119,65.4636606 C46.6971768,65.8078977 46.3328106,66 45.9584677,66 C45.7741157,66 45.5871612,65.9531563 45.4162561,65.8556009 Z" id="Fill-25" fill="#3E3D3D"></path>
                <path d="M38.1291366,68 C37.652196,68 37.2086773,67.6757007 37.0546653,67.1669111 C36.863618,66.5351279 37.1892565,65.8586635 37.783174,65.6549555 L39.5242783,65.0582447 C40.1181959,64.8545367 40.7541167,65.2023778 40.945164,65.8332 C41.1366629,66.4649832 40.8105728,67.1414475 40.2166552,67.3451556 L38.4755509,67.9418663 C38.3603806,67.9812627 38.2438553,68 38.1291366,68" id="Fill-27" fill="#3E3D3D"></path>
                <path d="M25.1549203,63 C24.6666091,63 24.2134082,62.6723468 24.0558736,62.1582953 C23.8604567,61.5199783 24.1940051,60.836518 24.8010448,60.6307032 L26.490962,60.0588877 C27.0966157,59.8530729 27.7484673,60.2040259 27.9443462,60.8423429 C28.1393011,61.4801745 27.8057526,62.1636348 27.1987129,62.3694496 L25.5092578,62.9412651 C25.3914533,62.9810689 25.2722628,63 25.1549203,63" id="Fill-29" fill="#3E3D3D"></path>
                <path d="M27.9791047,64 C27.56513,64 27.1809207,63.6543156 27.0473679,63.1119751 C26.8816996,62.4385307 27.1644714,61.7174586 27.6791003,61.5003176 L28.7204993,61.0619385 C29.2359115,60.8453096 29.7869639,61.2150639 29.9526321,61.8879963 C30.1183004,62.5609286 29.8355286,63.2825128 29.3208997,63.4991417 L28.2795007,63.9380329 C28.1796298,63.9800271 28.0785839,64 27.9791047,64" id="Fill-31" fill="#3E3D3D"></path>
                <path d="M29.0145621,59 C28.5860171,59 28.1875027,58.7661137 28.0491183,58.399172 C27.8774568,57.9435269 28.1700524,57.4556573 28.7037046,57.3087421 L29.6740182,57.0419384 C30.2080762,56.8953697 30.7790638,57.1451949 30.9507253,57.6008401 C31.1227926,58.0561388 30.8297912,58.5443548 30.2965448,58.6909236 L29.3258254,58.9580737 C29.2223415,58.9864866 29.1176402,59 29.0145621,59" id="Fill-33" fill="#3E3D3D"></path>
                <path d="M66.1831921,13 C65.987584,13 65.7891341,12.9585976 65.6058403,12.8721751 C65.035593,12.6008488 64.8314596,11.9886561 65.151158,11.5042882 L67.782158,7.51438369 C68.1018565,7.03001586 68.8222437,6.85717092 69.3939119,7.12809532 C69.9646329,7.39901973 70.1682927,8.01121242 69.8490678,8.49558024 L67.2175942,12.4858868 C67.0006729,12.8146941 66.5980896,13 66.1831921,13" id="Fill-35" fill="#3E3D3D"></path>
                <path d="M62.9782172,19 C62.8164939,19 62.6524211,18.957761 62.5012705,18.8695922 C62.0294144,18.5931934 61.8606426,17.9682202 62.1249603,17.474065 L63.1665681,15.5245097 C63.4304942,15.0307646 64.027265,14.854427 64.4987295,15.1304158 C64.9705856,15.4068147 65.1393574,16.0317878 64.8750397,16.525943 L63.8334319,18.4754983 C63.6540875,18.8109497 63.3212429,19 62.9782172,19" id="Fill-37" fill="#3E3D3D"></path>
                <path d="M57.9417628,28 C57.7860663,28 57.6281079,27.9599357 57.4825901,27.8763063 C57.0283182,27.6141378 56.8658359,27.0213414 57.1203035,26.5526277 L58.2346834,24.497678 C58.489151,24.0293533 59.0633054,23.8617055 59.5175773,24.123874 C59.9718492,24.3860425 60.1339545,24.9784499 59.8798638,25.4475526 L58.765107,27.5025022 C58.592446,27.820683 58.2720053,28 57.9417628,28" id="Fill-39" fill="#3E3D3D"></path>
                <path d="M53.9417628,34 C53.7860663,34 53.6281079,33.9599339 53.4825901,33.8763009 C53.0283182,33.6141211 52.8658359,33.0212991 53.1203035,32.5525652 L54.2346834,30.4975268 C54.489151,30.0291819 55.0629284,29.8619159 55.5175773,30.1237067 C55.9718492,30.3858865 56.1339545,30.9783195 55.8798638,31.4474424 L54.765107,33.5024808 C54.592446,33.8206752 54.2720053,34 53.9417628,34" id="Fill-41" fill="#3E3D3D"></path>
                <path d="M51.1278846,41 C50.9414176,41 50.7522417,40.9567025 50.577965,40.8663244 C50.0339148,40.5829993 49.8393209,39.9423651 50.1440793,39.4358269 L51.885943,36.5378399 C52.1907014,36.0317221 52.8778753,35.8505454 53.422377,36.1338705 C53.9664272,36.4171956 54.1605696,37.0574094 53.8558112,37.5639476 L52.1139475,40.4623549 C51.9071632,40.8062124 51.5233934,41 51.1278846,41" id="Fill-43" fill="#3E3D3D"></path>
                <path d="M47.0713216,48 C46.8942059,48 46.714517,47.951455 46.5489803,47.8501233 C46.032214,47.5324601 45.8473789,46.814183 46.1368538,46.2462539 L47.9920662,42.6030244 C48.2811123,42.0355667 48.9342534,41.8324319 49.4510197,42.1500951 C49.967786,42.4677584 50.1526211,43.1855641 49.8631462,43.7534932 L48.0079338,47.397194 C47.8115197,47.7827259 47.4469957,48 47.0713216,48" id="Fill-45" fill="#3E3D3D"></path>
                <path d="M68.8691434,8.99999692 C68.6861243,9.00041528 68.5004137,8.95816136 68.328609,8.86988832 C67.276249,8.3289545 66.5132207,7.437857 66.1790314,6.36059126 C65.8452906,5.28416223 65.9812092,4.15041847 66.5612184,3.16895617 C67.7589171,1.14285985 70.5010639,0.404043812 72.6739675,1.52063499 C74.8464225,2.63806287 75.6395054,5.19505248 74.4413581,7.22156714 C74.1421577,7.72694074 73.4598732,7.91059887 72.917993,7.63239237 C72.3756643,7.35334917 72.1782907,6.71744861 72.4770425,6.21165666 C73.0781347,5.19505248 72.6806961,3.91279247 71.5911043,3.35261429 C70.5006154,2.79159939 69.1261776,3.16351754 68.5250854,4.17928501 C68.2344079,4.67127123 68.1662243,5.23981653 68.3335433,5.77991365 C68.5013108,6.32001076 68.8839464,6.76681458 69.4114721,7.03832738 C69.9538009,7.31737058 70.1511744,7.95327114 69.8524226,8.4590631 C69.6478718,8.80462485 69.2643391,8.99999692 68.8691434,8.99999692" id="Fill-47" fill="#3E3D3D"></path>
                <path d="M46.5996964,41.4498515 L52.265424,44.4994255 L53.4000671,42.5499687 L47.7343395,39.4999711 L46.5996964,41.4498515 Z M52.6887129,47 C52.5019548,47 52.3165182,46.95425 52.1509026,46.8648682 L44.5634173,42.7812602 C44.3083868,42.6435867 44.1207479,42.4148369 44.0414638,42.1449968 C43.9621797,41.8743095 43.9974171,41.5845597 44.1401284,41.3397127 L46.3503921,37.5416184 C46.6472669,37.031591 47.3172172,36.849862 47.8493014,37.1345284 L55.4363463,41.21856 C55.9671091,41.5044973 56.1565099,42.1492329 55.8596351,42.6596839 L53.6493715,46.4577782 C53.5071006,46.7030488 53.268808,46.883507 52.98779,46.9601806 C52.8895658,46.9864445 52.7886989,47 52.6887129,47 Z" id="Fill-49" fill="#3E3D3D"></path>
                <path d="M61.5997476,13.4499559 L67.2655869,16.4994726 L68.4002524,14.5500524 L62.7344131,11.5001121 L61.5997476,13.4499559 Z M67.6875626,19 C67.5056462,19 67.3210868,18.9563689 67.1506227,18.8648707 L59.5629879,14.7813395 C59.3083929,14.6436686 59.1207503,14.4149231 59.0414646,14.1450881 C58.962179,13.8744059 58.9974171,13.5846616 59.1401312,13.3398191 L61.3504384,9.54179627 C61.647319,9.03177848 62.3177231,8.84962927 62.8493773,9.13471396 L70.4365716,13.2186687 C70.6916071,13.355916 70.8792497,13.5846616 70.9585354,13.8549202 C71.037821,14.1256024 71.0025829,14.4149231 70.8598688,14.6597655 L68.6495616,18.4577884 C68.4478237,18.8047191 68.0734194,19 67.6875626,19 Z" id="Fill-51" fill="#3E3D3D"></path>
                <path d="M53.5999229,28.4497747 L59.2655972,31.4993909 L60.3997892,29.5499071 L54.7345554,26.4998672 L53.5999229,28.4497747 Z M59.6884416,34 C59.5016854,34 59.3166909,33.9542494 59.1506364,33.8648663 L51.5632225,29.7812018 C51.0329051,29.4952606 50.8435061,28.8500924 51.1403781,28.3396343 L53.3506209,24.5414875 C53.4928904,24.2962134 53.7311809,24.1161763 54.0121962,24.0395017 C54.2932115,23.964098 54.5944882,23.9971401 54.8490757,24.1343919 L62.4364897,28.21848 C62.9672475,28.5044212 63.1566465,29.1491657 62.8593341,29.6596238 L60.6495317,33.4577707 C60.5068217,33.7030447 60.2689717,33.8835054 59.9875159,33.96018 C59.8897332,33.9864443 59.7888672,34 59.6884416,34 Z" id="Fill-53" fill="#3E3D3D"></path>
                <path d="M47.7674944,33.5566161 C49.4032954,33.8134578 51.134181,34.5487214 53.4007248,35.8324944 C55.6664081,37.1149613 56.8818573,37.9812577 57.6816874,39.0369205 C57.2948949,36.9512792 56.1878681,35.3793212 54.3825496,34.3576138 C51.8488221,32.9232185 49.5586147,32.9985297 47.7674944,33.5566161 M58.5056114,45 L58.5034601,45 C58.0301879,44.9991294 57.6128478,44.6843895 57.4760291,44.2259924 L57.3452339,43.785879 C56.3031744,40.2754196 56.1943218,39.9084408 52.3504907,37.7318166 C48.1026572,35.3262116 46.3158394,35.2413232 43.4116688,36.2081797 C42.9448502,36.3631553 42.4341465,36.1785776 42.1695443,35.7602304 C41.904942,35.3423186 41.9539903,34.7955506 42.2891531,34.4320544 C42.3459457,34.3702383 48.0764121,28.2922329 55.433214,32.4582916 C60.6095216,35.3888984 60.378909,41.4399135 59.5343331,44.230781 C59.3957934,44.6878721 58.9784534,45 58.5056114,45" id="Fill-55" fill="#3E3D3D"></path>
                <path d="M64.3740509,23.8860356 L64.3785897,23.8860356 L64.3740509,23.8860356 Z M61.0067423,19.2693258 C60.0495171,19.2693258 59.1190706,19.7726616 58.6193527,20.665413 C58.2635137,21.302185 58.1763694,22.0388071 58.3742595,22.7409354 C58.5726035,23.4421561 59.0319263,24.0249181 59.668261,24.3807479 C60.3045956,24.7370316 61.0421447,24.8246274 61.7433836,24.6258348 C62.4450765,24.427496 63.0278537,23.9681851 63.3836927,23.331867 C64.1189724,22.0183831 63.6483026,20.3517927 62.3347845,19.6165322 C61.914495,19.3809765 61.4574415,19.2693258 61.0067423,19.2693258 Z M60.9940338,27 C60.1502776,27 59.3165068,26.7844144 58.5598949,26.3609588 C57.3947944,25.7092093 56.5533076,24.6421739 56.1902065,23.3572835 C55.8275593,22.0719392 55.9868699,20.7226 56.6390902,19.5575298 C57.9852875,17.1520479 61.037152,16.2892515 63.4431505,17.6358675 C65.8486952,18.9824834 66.7101525,22.0347223 65.3644091,24.4402042 C64.7121888,25.6052744 63.6451255,26.447193 62.3602016,26.8093769 C61.9090485,26.9373667 61.4501795,27 60.9940338,27 Z" id="Fill-57" fill="#3E3D3D"></path>
                <path d="M56.1831386,70 C55.9875394,70 55.7890985,69.9585976 55.6058129,69.8721751 C55.0355914,69.6008488 54.8314672,68.9882541 55.1511512,68.5042882 L57.782506,64.5143837 C58.1017164,64.0300159 58.8230183,63.8571709 59.3941871,64.1280953 C59.9644086,64.3990197 60.1685328,65.0116144 59.8488488,65.4955802 L57.217494,69.4858868 C57.0005825,69.8146941 56.5980174,70 56.1831386,70" id="Fill-59" fill="#3E3D3D"></path>
                <path d="M59.9782217,63 C59.8164998,63 59.6524284,62.9577547 59.5008875,62.8695729 C59.029427,62.592723 58.8606567,61.9676573 59.1249722,61.4738391 L60.1665709,59.5244053 C60.4304948,59.030587 61.0260857,58.8546335 61.4991125,59.130253 C61.970573,59.407103 62.1393433,60.0321686 61.8750278,60.5259869 L60.8334291,62.4754206 C60.6540861,62.8109217 60.3212444,63 59.9782217,63" id="Fill-61" fill="#3E3D3D"></path>
                <path d="M64.9417713,54 C64.7860755,54 64.6281177,53.9599301 64.4822235,53.8762889 C64.0283305,53.6136946 63.8658489,53.0208149 64.1203155,52.5524245 L65.2346907,50.4975752 C65.4887803,50.0291847 66.0625553,49.8619024 66.5175793,50.1237187 C66.9718493,50.386313 67.1339539,50.9788036 66.8798643,51.4471941 L65.7651121,53.5024324 C65.5924518,53.8206578 65.2720124,54 64.9417713,54" id="Fill-63" fill="#3E3D3D"></path>
                <path d="M67.9417674,48 C67.7860722,48 67.6281151,47.9599357 67.4822215,47.8763063 C67.0283304,47.6137488 66.8658494,47.0209524 67.120315,46.5526277 L68.2350625,44.497678 C68.4891511,44.0293533 69.0629238,43.8617055 69.5179458,44.123874 C69.971837,44.3864315 70.1339409,44.9788389 69.8798524,45.4475526 L68.7651048,47.5025022 C68.5924452,47.820683 68.2720072,48 67.9417674,48" id="Fill-65" fill="#3E3D3D"></path>
                <path d="M72.1278512,42 C71.9413922,42 71.7522243,41.9567009 71.5775037,41.8663194 C71.0339282,41.5825633 70.8393426,40.9419052 71.144088,40.4357685 L72.8863286,37.5376734 C73.1906225,37.0315367 73.8773154,36.8507735 74.4226968,37.1336888 C74.9662722,37.4174449 75.1604063,38.0576826 74.8561124,38.5638193 L73.1138718,41.4623348 C72.9070964,41.8062051 72.523343,42 72.1278512,42" id="Fill-67" fill="#3E3D3D"></path>
                <path d="M75.0712681,36 C74.8941635,36 74.714486,35.951455 74.5485309,35.8501233 C74.0322261,35.5319888 73.8474026,34.8137117 74.1368593,34.2462539 L75.9919546,30.6030244 C76.2809824,30.0355667 76.9336535,29.8324319 77.4512448,30.1500951 C77.9679785,30.4682297 78.152373,31.1860354 77.8633452,31.7534932 L76.0078211,35.397194 C75.8114194,35.7827259 75.4469185,36 75.0712681,36" id="Fill-69" fill="#3E3D3D"></path>
                <path d="M54.1989307,77 C53.4801315,77 52.7701391,76.8013333 52.1285039,76.4116237 C50.111337,75.1859892 49.4026027,72.434702 50.5479005,70.2785181 C51.1027263,69.2336119 52.0052093,68.4824455 53.0884405,68.1631437 C54.1716717,67.8447389 55.306066,67.9954206 56.2831967,68.58873 C56.78644,68.8950265 56.9629945,69.5789243 56.6769846,70.1175218 C56.3905553,70.6561193 55.7505976,70.844023 55.2473543,70.5386234 C54.7571114,70.2408476 54.1880271,70.1650583 53.6453631,70.3247092 C53.1018603,70.485257 52.6493607,70.8615129 52.3713188,71.3853113 C51.7967827,72.4674394 52.1524079,73.8473433 53.163927,74.4617302 C53.6533311,74.7586091 54.2224154,74.8348469 54.7659182,74.6747475 C55.3090016,74.5146482 55.7615012,74.1379438 56.0399625,73.6141454 C56.325553,73.0759963 56.9663495,72.8867472 57.4691734,73.1930438 C57.9728361,73.4984434 58.1489713,74.1832381 57.8629613,74.7213871 C57.3085549,75.7662932 56.406072,76.5174597 55.3228407,76.8367614 C54.9512794,76.9461851 54.5742663,77 54.1989307,77" id="Fill-71" fill="#3E3D3D"></path>
                <path d="M71.5996964,35.4498515 L77.265424,38.4994255 L78.4000671,36.5499687 L72.7343395,33.4999711 L71.5996964,35.4498515 Z M77.6887129,41 C77.5019548,41 77.3165182,40.95425 77.1509026,40.8648682 L69.5634173,36.7812602 C69.3083868,36.6435867 69.1207479,36.4148369 69.0414638,36.1449968 C68.9621797,35.8743095 68.9974171,35.5845597 69.1401284,35.3397127 L71.3503921,31.5416184 C71.6472669,31.031591 72.3172172,30.849862 72.8493014,31.1345284 L80.4363463,35.21856 C80.9671091,35.5044973 81.1565099,36.1492329 80.8596351,36.6596839 L78.6493715,40.4577782 C78.5071006,40.7030488 78.268808,40.883507 77.98779,40.9601806 C77.8895658,40.9864445 77.7886989,41 77.6887129,41 Z" id="Fill-73" fill="#3E3D3D"></path>
                <path d="M55.5999229,63.4497186 L61.2655972,66.4993656 L62.3997892,64.5498621 L56.7345554,61.4997914 L55.5999229,63.4497186 Z M61.6884416,69 C61.5016854,69 61.3166909,68.9542489 61.1506364,68.8648649 L53.5632225,64.7811591 C53.0329051,64.495215 52.8435061,63.8500403 53.1403781,63.3395771 L55.3506209,59.5413919 C55.4928904,59.2961153 55.7311809,59.1160764 56.0121962,59.039401 C56.2932115,58.9639965 56.5944882,58.9974626 56.8490757,59.1342921 L60.6000578,61.1532695 L64.4364897,63.2184215 C64.9672475,63.5043657 65.1566465,64.1491167 64.8593341,64.6595799 L62.6495317,68.4577652 C62.5068217,68.7030417 62.2689717,68.8835042 61.9875159,68.9601796 C61.8897332,68.9864441 61.7888672,69 61.6884416,69 Z" id="Fill-75" fill="#3E3D3D"></path>
                <path d="M64.5999442,48.449879 L70.265665,51.4994379 L71.4003067,49.5499907 L65.734586,46.5000082 L64.5999442,48.449879 Z M70.6876319,54 C70.5057192,54 70.3211638,53.9563683 70.1507032,53.8648688 L62.5632271,49.7812811 C62.0329054,49.4953452 61.8435048,48.8501892 62.1403792,48.3397407 L64.3506402,44.5416652 C64.4929109,44.2963958 64.7312033,44.1163621 65.0122209,44.0396889 C65.2932385,43.9638629 65.5945176,43.997328 65.8491073,44.1345773 L73.4365834,48.2185886 C73.6916135,48.3558378 73.8792523,48.5845865 73.9585362,48.8548489 C74.0378202,49.1255348 74.0025829,49.4148596 73.8598717,49.6597054 L71.6496108,53.4577809 C71.4478771,53.8047164 71.0734806,54 70.6876319,54 Z" id="Fill-77" fill="#3E3D3D"></path>
                <g id="Group-81" transform="translate(63.000000, 32.000000)">
                    <mask id="mask-2" fill="white">
                        <use xlink:href="#path-1"></use>
                    </mask>
                    <g id="Clip-80"></g>
                    <path d="M2.88658605,6.39145588 C3.35849302,8.25675 4.52500465,10.3095441 7.16158605,11.7826324 C9.29356279,12.9738088 11.3199349,12.7968971 12.9614465,12.1836618 C11.6243767,12.0402794 10.2250047,11.43675 7.91053953,10.1432206 C5.56205116,8.83072059 3.98902791,7.69910294 2.88658605,6.39145588 M10.4211907,14.8686618 C9.03330698,14.8686618 7.56633023,14.5364559 6.08256279,13.7074853 C-1.47192558,9.48630882 0.707330233,1.25616176 0.730306977,1.17366176 C0.865074419,0.688808824 1.31577209,0.365426471 1.81551628,0.364985294 C2.31967907,0.37425 2.75358605,0.723661765 2.86979535,1.21380882 C3.59400465,4.26366176 4.62707442,5.78042647 8.98956279,8.21836765 C12.9371442,10.4246912 13.3136093,10.3249853 16.9090279,9.37513235 L17.3606093,9.25601471 C17.8307488,9.13204412 18.3269581,9.33057353 18.5819116,9.74439706 C18.837307,10.1573382 18.7917953,10.6885147 18.4701209,11.0524853 C17.0566093,12.6508676 14.0055628,14.8682206 10.4211907,14.8686618" id="Fill-79" fill="#3E3D3D" mask="url(#mask-2)"></path>
                </g>
                <path d="M64.0040836,54.2707885 C63.7549864,54.2707885 63.5045281,54.3048299 63.2586071,54.3747282 C62.5571423,54.5726222 61.9745545,55.0324079 61.6188311,55.6683011 C61.2626539,56.3046482 61.175538,57.0413039 61.3738175,57.7434643 C61.5716433,58.4451709 62.0308169,59.0279595 62.6673984,59.3842594 C63.9800359,60.1195535 65.6465819,59.6484206 66.3816227,58.3348768 C66.7373461,57.6985297 66.824462,56.961874 66.6261825,56.2597135 C66.4283567,55.558007 65.9691831,54.9756722 65.3330553,54.6198262 L65.3326016,54.6198262 C64.9201621,54.3883448 64.4646183,54.2707885 64.0040836,54.2707885 M63.9913792,62 C63.1655927,62 62.3293704,61.7952978 61.5593926,61.3645607 C60.394217,60.7118737 59.5530037,59.6452434 59.1904744,58.3602944 C58.8274913,57.0748914 58.9867501,55.7254906 59.6387584,54.5603673 C60.2907668,53.39479 61.3574833,52.5532868 62.6424433,52.1906325 C63.9269497,51.8270704 65.2758855,51.9872919 66.4410611,52.6390711 C67.6053293,53.2913042 68.4469963,54.3579344 68.8095256,55.6428835 C69.1725087,56.9282865 69.0132499,58.2776873 68.3612416,59.4432645 C67.4465242,61.0781591 65.7432262,62 63.9913792,62" id="Fill-82" fill="#3E3D3D"></path>
                <g id="Group-86" transform="translate(47.000000, 0.000000)">
                    <mask id="mask-4" fill="white">
                        <use xlink:href="#path-3"></use>
                    </mask>
                    <g id="Clip-85"></g>
                    <path d="M4.10652069,5.94351429 L5.40607241,6.53108571 C5.64007241,6.63694286 5.82879655,6.81694286 5.93996897,7.04108571 L6.59265862,8.35808571 L7.52821034,6.65322857 C7.65103793,6.42994286 7.85186552,6.25508571 8.09617586,6.15951429 L8.77307241,5.89465714 L7.69227931,5.4078 C7.45783103,5.30237143 7.26865862,5.12237143 7.15748621,4.89865714 L6.56665862,3.71194286 L6.0766931,4.74522857 C5.96955517,4.97108571 5.78352069,5.15451429 5.55086552,5.26422857 L4.10652069,5.94351429 Z M6.54200345,11.8286571 C6.53438276,11.8286571 6.52676207,11.8286571 6.51914138,11.8282286 C6.09462414,11.8205143 5.7109,11.5830857 5.5289,11.2162286 L4.0859,8.30451429 L1.04793448,6.93137143 C0.658831034,6.75565714 0.409141379,6.38237143 0.406003448,5.97094286 C0.402865517,5.55951429 0.645831034,5.18322857 1.03224483,5.00151429 L4.2011069,3.51094286 L5.52127931,0.726085714 C5.70103793,0.346371429 6.09552069,0.1008 6.53124483,0.0969428571 L6.54200345,0.0969428571 C6.9736931,0.0969428571 7.36772759,0.3348 7.55376207,0.708085714 L9.00931379,3.63222857 L12.033831,4.99337143 C12.4363828,5.17422857 12.6883138,5.56551429 12.6771069,5.99022857 C12.6654517,6.41537143 12.3924517,6.79294286 11.9813828,6.95408571 L9.32355517,7.99465714 L7.53403793,11.2552286 C7.34038276,11.6083714 6.95800345,11.8286571 6.54200345,11.8286571 Z" id="Fill-84" fill="#3E3D3D" mask="url(#mask-4)"></path>
                </g>
                <path d="M3.61881534,54.9804932 L4.8892231,55.5806027 C5.11849268,55.6888767 5.30304812,55.8734247 5.41132649,56.1026849 L6.04959899,57.4501918 L6.96448546,55.706411 C7.08459993,55.4780274 7.28099147,55.2991781 7.51990528,55.2014247 L8.18184997,54.9305205 L7.12493034,54.4325479 C6.89522238,54.3247123 6.71066694,54.1406027 6.60195019,53.9117808 L6.0241733,52.6979726 L5.54546893,53.754411 C5.44069755,53.985863 5.25877235,54.1734795 5.03081789,54.2856986 L3.61881534,54.9804932 Z M6.00006273,61 C5.99261038,61 5.98515802,61 5.97770566,60.9995616 C5.56212714,60.9916712 5.1873174,60.7488219 5.00933757,60.373589 L3.59865013,57.3949589 L0.627351377,55.9913425 C0.247281146,55.8116164 0.0031068456,55.4293699 3.82278255e-05,55.0085479 C-0.00346876392,54.587726 0.234568301,54.2028493 0.612008288,54.0169863 L3.71087387,52.4923836 L5.00144683,49.6439452 C5.17767317,49.2551233 5.56344226,49.0039452 5.98954176,49 C6.40161329,49.0030685 6.80623246,49.2397808 6.98947278,49.6250959 L8.41287306,52.6164384 L11.3705822,54.0086575 C11.764242,54.1936438 12.0106082,54.593863 11.9996489,55.028274 C11.9882511,55.4631233 11.7212814,55.8493151 11.3192925,56.014137 L8.72017321,57.0784658 L6.9706227,60.4134795 C6.78080677,60.7746849 6.40687378,61 6.00006273,61 Z" id="Fill-87" fill="#3E3D3D"></path>
                <path d="M40.6188071,76.9807116 L41.8892119,77.5808431 C42.118481,77.6891211 42.303036,77.8736758 42.4113141,78.1029444 L43.0500235,79.4505005 L43.9649079,77.706656 C44.0845837,77.478264 44.2814132,77.2994082 44.5198881,77.2016512 L45.1822697,76.9307372 L44.1249141,76.4327464 C43.895645,76.3249068 43.7106516,76.1407905 43.6019351,75.9119603 L43.0241595,74.6981077 L42.5454563,75.7545846 C42.4406851,75.9860452 42.2587603,76.1736684 42.0308064,76.2858917 L40.6188071,76.9807116 Z M43.000049,83 C42.9925967,83 42.9851443,83 42.977692,82.9995616 C42.5621144,82.9916709 42.1873055,82.7488127 42.0093261,82.3735662 L40.5986419,79.3952656 L37.6273499,77.9915979 C37.2472806,77.8118653 37.0031068,77.4296047 37.0000382,77.0087674 C36.9965312,76.5879302 37.2345678,76.2030394 37.6120069,76.0171696 L40.7108654,74.4925111 L42.0014354,71.6439687 C42.1776613,71.2551326 42.5629912,71.0039453 42.9895281,71 C43.405544,71.0105209 43.8062169,71.2397896 43.9894568,71.6251187 L45.4128538,74.6165705 L48.3709946,76.0088405 C48.7642152,76.1938336 49.0110191,76.5940674 48.9996214,77.0284942 C48.9886621,77.4633594 48.721693,77.8495653 48.3192666,78.0143932 L45.7201533,79.0787609 L43.9706068,82.413458 C43.7807913,82.7746767 43.4064208,83 43.000049,83 Z" id="Fill-89" fill="#3E3D3D"></path>
            </g>
        </g>
    </g>
</svg>
